<?xml version="1.0" standalone="no"?>
<!DOCTYPE svg PUBLIC "-//W3C//DTD SVG 1.1//EN" "http://www.w3.org/Graphics/SVG/1.1/DTD/svg11.dtd" >
<svg xmlns="http://www.w3.org/2000/svg" xmlns:xlink="http://www.w3.org/1999/xlink" version="1.1" viewBox="0 0 1024 1024">
  <g transform="matrix(1 0 0 -1 0 960)">
   <path fill="#a62639"
d="M733 413h-1.5h-1.5l-97 -57l-0.5 -1l-0.5 -1v-86q0 -1 0.5 -1.5l0.5 -0.5q1 0 1 -0.5t1 -0.5l0.5 0.5l0.5 0.5l97 56l0.5 0.5t0.5 1.5v87l-0.5 0.5t-0.5 1.5zM729 325l-92 -53v80l92 54v-81zM602 303q0 1 -1 1t-1 -1l-7 -3l-16 12l-0.5 0.5t-1.5 0.5q0 -1 -0.5 -1.5
t-1.5 -0.5l-8 -28l-9 -5l-0.5 -0.5t-0.5 -1.5v-17q0 -1 0.5 -1.5l0.5 -0.5l0.5 -0.5l0.5 -0.5q1 0 1 0.5t1 0.5l43 25q1 0 1.5 0.5t0.5 1.5v17q0 1 -0.5 1.5t-1.5 0.5zM599 286l-39 -23v11l39 23v-11v0zM577 306l11 -9l-17 -10zM824 487l-29 66v9l6 2q5 1 8.5 5t3.5 9l1 17
v0.5v1.5q1 4 -1.5 8.5t-6.5 6.5l-253 144h-0.5t-0.5 1l-19 10q-1 1 -3 1.5t-4 0.5h-2h-1l-136 -26h-0.5h-0.5q-1 0 -2.5 -1t-2.5 -1q0 -1 -0.5 -1h-0.5v0l-47 -41l-68 40q-3 1 -5.5 1t-4.5 -1l-17 -7q-3 -2 -5 -4.5t-2 -5.5v-87q0 -3 2 -5.5t5 -4.5l6 -2l-35 -31
q-4 -2 -7 -5.5t-3 -8.5v-23q0 -4 2.5 -7.5t5.5 -6.5l15 -8v-255q0 -4 2 -7.5t6 -5.5l233 -136v0v0q1 -1 2.5 -1.5t3.5 -0.5h0.5h1.5h1h1q1 0 2.5 0.5t3.5 1.5l308 179q4 2 6 5.5t2 7.5v146q10 -4 17.5 1t11.5 16l0.5 1t-0.5 2v0zM542 190v109l67 38l1 -107l-68 -40v0z
M617 351l-83 -47v-119l-58 -33v180l34 -14v-0.5v-0.5h1v0v0v0l2 -1q8 -5 16.5 1t11.5 16l3 1q10 -5 17 0t11 15l2 1q14 -4 19 1t11 15l3 2q13 -7 20.5 0t9.5 16l2 1q8 -6 18 1t13 15l4 3q10 -3 16.5 0.5t9.5 12.5l2 1h-1l3 2q8 -7 18.5 0.5t12.5 15.5l3 2q11 -8 19 0t10 15
v1q2 -2 3.5 -2.5t3.5 -0.5v-126l-155 -90l-2 116v0zM243 281v253l223 -133v-249l-223 129v0zM281 610l11 -6v-32l-11 6v32v0zM297 601l6 -4v-21l-6 -4v29zM415 532l11 -6v-31l-11 6v31zM431 524l6 -4v-21l-6 -4v29zM466 592l13 5v-80l-13 -6v81v0zM332 685l144 -84l-12 -5
l-217 126l12 5zM244 701v17l1 -1l7 -4l209 -121v-80l-217 125v64v0zM221 559v12l271 -164l1 -0.5l1 -0.5q1 0 2 0.5t2 1.5l158 154l137 30l-1 -8l-10 -3q-1 0 -1.5 -0.5t-1.5 -0.5l-119 -28q-1 0 -1.5 -0.5t-1.5 -0.5l-161 -157l-275 165v0zM607 374l-38 -19l-31 66l36 35
l-3 -3zM663 542l25 6l48 -106l-37 -19l-50 106zM480 389l11 -6q1 0 1 -0.5t1 0.5h3v0v0q1 0 2 0.5t2 0.5v0v0l7 7l8 8l27 -58l-31 -16l-31 64v0zM634 388l-41 86l34 33l46 -99l-27 -14l-12 -6v0zM763 456l-47 99l9 2l30 6l38 -90zM652 572l-1 -0.5t-1 -1.5l-156 -152
l-268 161l44 37l6 -3v-36q0 -1 0.5 -1.5l0.5 -0.5l16 -9q0 -1 0.5 -1h0.5h1v1l12 6q0 1 0.5 1.5l0.5 0.5v20l102 -59v-35q0 -1 0.5 -1.5t0.5 -1.5l16 -9h0.5h0.5h0.5h0.5l12 7l0.5 1l0.5 1v20l20 -12h0.5h0.5h1v0l18 8q1 0 1 0.5v1.5v86v0.5v0.5v0v0v0v0v0.5t-1 0.5l-136 79
l47 41l132 25l18 -11h0.5h0.5l240 -137l-132 -28v0zM285 645v0v0l0.5 -0.5l0.5 -0.5q0 -2 1 -4.5t2 -4.5v-0.5v-0.5v0v0q1 -2 2.5 -4t2.5 -3q2 -2 4 -3.5t4 -3.5h1v0q1 -1 2.5 -1.5t2.5 -0.5t1.5 -0.5t1.5 -0.5t2.5 0.5t3.5 1.5q1 1 2 3t1 4q1 2 1.5 4.5t0.5 6.5q0 3 -0.5 6
t-0.5 6q-1 3 -1.5 5t-1.5 4v0v0l-1 1v1q-1 1 -1.5 2.5t-1.5 2.5q-1 0 -1.5 1l-0.5 1v0.5t-1 0.5q-1 2 -3 3.5t-4 2.5v0v0q-3 2 -5 2.5t-4 0.5q-1 0 -3 -0.5t-3 -1.5t-2 -2.5t-1 -3.5q-1 -2 -1.5 -5t-0.5 -6v-0.5v-0.5q0 -3 0.5 -6t0.5 -6v0zM307 663q0 -1 0.5 -1t0.5 -1v0v0
q1 -1 2 -2.5t1 -2.5t0.5 -1.5t0.5 -1.5v0v0q0 -1 0.5 -2t0.5 -2v-4v-4v-3.5v-3.5q-1 -1 -1 -2.5t-1 -1.5l-1.5 -1.5l-1.5 -1.5q-1 0 -2.5 0.5t-2.5 1.5q-2 1 -3 2l-2 2t-2 2.5t-1 2.5v0v1v0v0q-1 1 -1.5 3t-0.5 3v3v2v0v1v1v1v4v3q1 2 1 3t1 2l1.5 1.5t1.5 0.5t2.5 -0.5
t2.5 -0.5l2 -2t2 -1zM329 606q0 -1 0.5 -1h0.5q1 -1 1.5 -1t0.5 -1q1 0 1.5 -0.5l0.5 -0.5h1v0h1v0v0v1v16l4 -2q2 -1 3.5 -1.5t3.5 -0.5q1 -1 2 -0.5t2 0.5l2 2t1 2q1 2 1.5 3.5t0.5 3.5t-0.5 3.5t-0.5 3.5q0 1 -0.5 2.5t-1.5 2.5l-1.5 3t-1.5 2l-2 2l-2 2l-1.5 1.5
l-1.5 1.5l-1 0.5l-1 0.5l-10 6h-0.5h-1.5v-0.5v-1.5l-1 -48v0v0q0 -1 0.5 -1h0.5v0zM337 645l3 -2q1 0 1.5 -0.5l0.5 -0.5l1.5 -1.5l1.5 -1.5l0.5 -1t0.5 -2q1 -2 1 -3v-2v-2v-2t-0.5 -1.5t-1.5 -0.5l-0.5 -0.5t-1.5 -0.5l-1 0.5t-2 0.5l-4 3l1 17v0zM364 585l20 -12v0v0
h0.5h0.5v1v1v0.5v0.5v1.5v0.5v1.5v0.5l-0.5 0.5l-0.5 0.5v0v0l-14 9v15l12 -7v-1v0v0.5t1 0.5v0.5v0.5v0.5v1.5v0.5v1.5v0.5v0.5q0 1 -0.5 1h-0.5v0.5v0.5l-12 7v13l14 -9v0v0h1v1v0v1v0.5v1.5v0.5v1.5v0.5v0.5v0.5v0.5h-1v1l-20 11q0 1 -0.5 1t-0.5 -1q-1 0 -1 -0.5v-1.5
v-45v-2v-1q1 -1 1 -1.5t1 -0.5v0zM393 568l0.5 -0.5l0.5 -0.5l0.5 -0.5t1.5 -0.5q0 -1 0.5 -1h0.5h1l1 -1v0.5v0.5v0v0l1 28v2.5v3.5q-1 1 -1 2.5v3.5v0q1 -2 1.5 -3.5t0.5 -2.5q0 -2 0.5 -3.5t1.5 -2.5l9 -30q1 -2 1 -3t1 -1q0 -1 0.5 -2l0.5 -1q0 -1 0.5 -1.5l0.5 -0.5
q1 0 1.5 -0.5l0.5 -0.5l4 -2v-1h1h0.5h0.5v0.5v0.5q1 0 1 0.5v1.5v47v0v1v0h-1v1h-1q0 1 -0.5 1t-0.5 1h-1.5t-0.5 1h-1v0h-1v0v-0.5v-0.5v-25v-2.5v-3.5v-2.5v-3.5v0q-1 1 -1 2v2q-1 1 -1 2t-1 2q0 1 -0.5 2.5t-0.5 2.5t-0.5 2t-0.5 2l-8 23q0 1 -0.5 2t-0.5 2t-0.5 1.5
l-0.5 0.5q0 1 -0.5 1.5l-0.5 0.5q-1 0 -1.5 0.5l-0.5 0.5l-5 3h-0.5h-1.5l-0.5 -0.5t-0.5 -1.5v-47v-1v0l0.5 -0.5l0.5 -0.5v0z" />
  </g>

</svg>
