<?xml version="1.0" standalone="no"?>
<!DOCTYPE svg PUBLIC "-//W3C//DTD SVG 1.1//EN" "http://www.w3.org/Graphics/SVG/1.1/DTD/svg11.dtd" >
<svg xmlns="http://www.w3.org/2000/svg" xmlns:xlink="http://www.w3.org/1999/xlink" version="1.1" viewBox="0 0 1024 1024">
  <g transform="matrix(1 0 0 -1 0 960)">
   <path fill="#a62639"
d="M665 577l-149 85q-2 1 -4 1t-4 -1q-1 -1 -2 -2.5t-1 -3.5v-86q0 -3 2 -5t5 -2h149q3 0 5 1.5t2 4.5q1 2 0 4.5t-3 3.5zM519 578v65l115 -65h-115zM914 520l-463 265q-4 2 -8.5 2t-8.5 -2q-4 -3 -6.5 -7t-2.5 -8v-133q-17 8 -35 6.5t-39 -13.5l-0.5 -0.5l-0.5 -0.5
q-10 -6 -53.5 -29t-164.5 -89l-7 -4q-6 -4 -10.5 -8.5t-7.5 -10.5q-1 -2 -2 -4.5t-1 -5.5q-1 0 -1.5 -15.5t-0.5 -27.5q0 -21 25.5 -54t25.5 -34l20 -19l1.5 -1.5l1.5 -1.5l248 -148l-22 -36q0 -1 -0.5 -1.5t-0.5 -1.5v0q-3 -4 -3 -8.5t2 -8.5q3 -4 6.5 -6.5t8.5 -2.5v0h2h1
l121 -3q3 0 5 0.5t4 1.5l211 118q1 1 3 1.5t4 0.5t4.5 0.5t5.5 1.5l13 7q2 1 4 3t3 4q3 0 5 0.5t4 1.5l13 6q3 2 5.5 4.5t3.5 5.5l1 1q2 1 3 2l2 2v0v0q1 1 1 1.5t1 0.5l28 16q1 1 3 2.5t3 2.5q0 1 12.5 31t-12.5 66q-13 18 -30.5 28.5t-35.5 10.5q-6 0 -12 -1.5t-12 -3.5
q-1 -1 -3 -2t-5 -2q-4 -2 -7 -3t-7 -2v0v0l-126 73h274q6 0 10.5 3.5t6.5 9.5q1 5 -1 10.5t-7 8.5v0zM135 486q1 0 2 1t2 1l35 19t77.5 42t78.5 43q35 19 36 19q9 6 17 8.5t15 2.5q12 0 21 -6t18 -15q4 -4 7.5 -8.5t7.5 -9.5q2 -1 3 -2.5t2 -3.5q5 -6 9.5 -11.5t8.5 -10.5
l-275 -159l-2 1l-58 62q0 1 -1 2l-2 2q-3 3 -4.5 7t-1.5 8q0 2 1.5 4t2.5 4v0zM192 348v0l-19 19q-16 18 -30 40.5t-15 30.5v0v0v6t1 6l0.5 -0.5t0.5 -1.5l5 -5l53 -57q0 -1 0.5 -1.5t1.5 -0.5l2 -1v-35v0zM195 347v34l260 -147q3 -2 6 -3t6 -3l-20 -32l-252 151v0zM537 137
q0 -1 -0.5 -1h-0.5l-49 1q1 4 0 12.5t-6 16.5q0 1 -1 2t-1 2q-5 5 -10.5 8t-12.5 4l3 6l24 40q2 0 3 -0.5t2 -0.5q1 -1 2 -1h1q2 -1 3.5 -1t2.5 -1q1 0 1.5 -0.5l1.5 -1.5t1 -3v-6q-1 -1 -0.5 -2t1.5 -1q1 -1 2 -1.5t2 -0.5q5 0 10 -3t9 -8q1 -2 2 -3.5t2 -2.5q2 -5 2.5 -9
t-0.5 -8q-1 0 -1 -0.5v-0.5v-2t1 -2q0 -1 1 -2t2 -1q3 0 5 -4.5t3 -8.5q1 -7 -0.5 -11.5t-4.5 -4.5v0zM537 196q-1 1 -2 3l-2 4q-4 5 -8.5 8.5t-9.5 4.5l210 119q4 -3 7.5 -7t7.5 -8q1 -2 2 -3.5t1 -2.5l2 -4t2 -3q1 -3 2 -5.5t1 -5.5l-209 -118v1v2q0 3 -1 7t-3 8v0z
M538 234l-28 -15v3.5t-1 2.5q-1 2 -2.5 4t-3.5 3t-4.5 2t-4.5 1q-1 0 -1.5 0.5l-0.5 0.5q1 0 2.5 1t2.5 2q32 18 88 50t107 61q4 -1 7.5 -2t6.5 -3l4 -2l4 -2t3.5 -1.5t2.5 -1.5l-182 -104v0zM750 254v0v-1l-199 -111q1 3 1 6v6q-1 6 -3.5 11t-6.5 8l209 119q3 -16 1 -27
l-2 -11v0zM769 264v-1.5t-1 -1.5v-0.5v-0.5v-0.5v-1.5v-1.5t-1 -0.5l-8 -5v0.5t1 1.5v2v1v1v0q0 1 0.5 1.5t0.5 1.5q1 6 1 15.5t-2 21.5q0 1 -0.5 2t-0.5 2q-1 3 -2 6.5t-3 6.5q-1 3 -3 6.5t-5 6.5q-2 3 -5.5 6.5l-6.5 6.5l-1.5 1.5t-1.5 0.5l-0.5 0.5l-0.5 0.5q-2 1 -3 2
t-3 2t-3.5 2t-3.5 2q-3 2 -6.5 3t-7.5 3h-0.5h-1.5l-0.5 0.5l-0.5 0.5h-1.5t-1.5 1h-1.5t-1.5 1l8 4l1 -0.5l1 -0.5h1.5t0.5 -1h0.5h0.5q1 0 2 -0.5t2 -0.5q3 -1 6.5 -2.5t6.5 -3.5l4 -2t3 -2q2 -1 3.5 -2t2.5 -2l0.5 -0.5l0.5 -0.5q1 0 1.5 -0.5l1.5 -1.5q3 -2 5.5 -4.5
t4.5 -5.5q3 -3 5 -6l4 -6v-1v0q2 -4 3.5 -8t2.5 -7q1 -2 1 -3t1 -2q2 -11 2 -20.5t-1 -16.5v0zM781 271v-1.5v-1.5v0v0v-1.5t-1 -1.5v-0.5v-1.5v0v-1v-0.5v-0.5l-8 -4v0.5v0.5v0v1h0.5t0.5 1v0.5v0.5v1.5v1.5t0.5 1.5t0.5 1.5q1 7 0.5 16.5t-2.5 19.5q-1 1 -1 2.5t-1 2.5
q-1 4 -2.5 8t-3.5 8h-1v1q-2 3 -4.5 6.5t-4.5 6.5q-2 2 -4.5 4t-4.5 4l-1.5 1.5t-1.5 0.5q0 1 -0.5 1t-0.5 1q-1 0 -2.5 1t-2.5 2l-4 2l-4 2q-3 2 -6 3.5l-7 3.5h-1t-2 1l-1 0.5t-2 0.5v0v0h-0.5t-1.5 1v0v0h-1h-1l8 4v0h1v0l1 -1h0.5h1.5l1 -0.5l1 -0.5q1 0 1.5 -0.5
l0.5 -0.5h0.5t0.5 -1q3 -1 6 -2.5l7 -3.5q1 -1 3 -2t4 -3q1 0 2 -1t3 -2q0 -1 0.5 -1h0.5l1.5 -1.5l0.5 -0.5l3.5 -3.5l2.5 -2.5q3 -3 5.5 -6.5t5.5 -6.5q3 -5 5 -9.5t4 -10.5q1 -1 1 -2t1 -3q2 -7 3 -16t0 -19v0zM799 281q-1 -1 -1 -2v-1v-1v-1v-0.5v-0.5q-1 -1 -1 -1.5
v-1.5l-12 -7v1.5v1.5v1v1v1v0v1.5v0.5q1 10 0 19t-4 17q0 1 -0.5 2t-0.5 2q-2 6 -5 11.5t-6 10.5q-3 4 -5.5 7t-5.5 6l-2 2l-2 2l-0.5 0.5l-1.5 1.5l-0.5 0.5l-0.5 0.5q-2 1 -3 2l-2 2q-2 1 -3.5 2t-3.5 2l-6 4t-6 3h-0.5h-0.5l-1 1h-1q-1 1 -1.5 1t-1.5 1h-0.5h-0.5l11 6h1
h1l1 -0.5t2 -0.5v0v0q1 -1 1.5 -1h1.5q3 -1 6.5 -2.5t6.5 -3.5q2 -1 3.5 -1.5t2.5 -1.5h0.5h0.5q1 -1 3 -2.5t3 -2.5v0v0q1 0 2 -1l2 -2t2 -1.5t2 -1.5q5 -4 9 -9t7 -11q2 -4 3.5 -7.5t2.5 -7.5q1 -1 1 -2t1 -3q2 -10 2 -19.5v-16.5v0zM750 389l3 1l1 1l2 1v0v0v0
q1 0 1.5 -0.5t1.5 -0.5t1.5 -0.5t1.5 -0.5v0h1v0v0q0 -1 0.5 -1h0.5q1 0 2 -0.5t2 -1.5v0v0q1 0 2.5 -0.5t2.5 -1.5l0.5 -0.5t1.5 -0.5q8 -4 16.5 -11t15.5 -17l6 -12t6 -14q2 -8 2.5 -17t0.5 -19v-0.5v-0.5q-1 0 -1 -1v-1v-1.5v-1.5v-1v-1v0v-1v0h-1l-6 -3v1v1q0 1 0.5 1
t0.5 1v0.5v0.5v0v0v1.5v1.5v8t-1 8q0 5 -1 10t-3 9q0 1 -0.5 2.5t-0.5 2.5q-4 12 -11 21.5t-15 16.5q-1 1 -2 1.5t-2 1.5l-2.5 2.5t-3.5 2.5v0h-1q-1 1 -3 2.5t-3 2.5q-2 0 -3 1t-2 1q-1 1 -1.5 1t-1.5 1q-1 0 -1.5 0.5t-1.5 0.5v0v0l-1 0.5t-2 0.5q0 1 -1 1h-1l-0.5 0.5
l-0.5 0.5h1v0zM751 383v0v0q1 0 3 -1l4 -2v0h1q1 -1 2.5 -2t3.5 -2q1 -1 2.5 -2t3.5 -2q1 0 1.5 -0.5l0.5 -0.5l1.5 -1.5l0.5 -0.5q1 -1 2 -1.5t2 -1.5q8 -7 15 -16.5t11 -21.5q1 -2 1 -3t1 -2q2 -8 3 -16.5t0 -18.5v0v0v-2v-1v-1v0v0v0v-1v-1v-1.5v-1.5v0v0v-1.5t-1 -1.5
l-8 -4q1 1 1 1.5v1.5v0v0v0v0v1.5v1.5q1 0 1 1v1v2v2q1 7 0.5 16t-2.5 20q-1 1 -1 2t-1 2q-1 4 -2.5 7.5t-3.5 7.5q-4 7 -9 12.5t-11 11.5v0v0q-1 1 -2 1.5t-2 1.5h-0.5t-0.5 1q-2 1 -3.5 2t-2.5 2q-1 0 -2 0.5t-2 1.5q-1 0 -1.5 0.5t-1.5 0.5q-2 2 -5 3t-6 3h-2t-1 1h-1.5
h-0.5q-1 0 -1 0.5v0.5h-1v0q-1 0 -1.5 0.5l-0.5 0.5l7 3h1.5h0.5h0.5h0.5q0 -1 1 -1h2q0 -1 1 -1t2 -1v0zM745 398h-1h-1q-1 0 -2.5 -0.5l-1.5 -0.5l-13 -7q-2 -1 -3 -2.5t-2 -2.5l-5 -3v0v0h-1.5h-1.5h-1.5t-2.5 -1l-13 -6q-2 -1 -3 -2.5t-1 -3.5l-3 -1l-2.5 -2.5
t-1.5 -3.5q-56 -31 -116.5 -66t-88.5 -51v0q-2 0 -3 -1l-2 -2h-1v0l-6 2t-5 2l-261 148l275 159v0v0l1.5 -1.5l0.5 -0.5l266 -153v0zM570 516l-83 47q-4 6 -9 11.5t-9 11.5q-4 5 -8.5 10.5t-8.5 9.5v153l43 -24q0 -1 -0.5 -1t-1.5 -1l-8 -15q-1 -1 -0.5 -2l0.5 -1h1h1h1t1 1
l9 15v1.5v0.5l26 -15l-1 -0.5l-1 -0.5l-9 -15v-2t1 -2h1h1l0.5 0.5t1.5 0.5l8 15q1 1 1 1.5t-1 1.5l27 -16h-1t-1 -1l-9 -15v-2t1 -1t1 -0.5v-0.5q1 0 1.5 0.5l1.5 1.5l8 15q1 0 0.5 1l-0.5 1l27 -15l-1 -0.5l-1 -0.5l-9 -15v-2t1 -2h0.5h0.5h1.5t1.5 1l8 15q1 1 0.5 1.5
t-0.5 1.5l27 -16h-1t-1 -1l-9 -15q-1 -1 -0.5 -2t1.5 -1q0 -1 0.5 -1h0.5q1 0 1.5 0.5l0.5 0.5l9 16v1v1l27 -15l-1 -0.5l-1 -0.5l-9 -16q-1 0 -0.5 -1.5t1.5 -1.5h0.5h0.5h1.5t0.5 1l9 15v1.5t-1 1.5l28 -16h-1t-2 -1l-8 -15q-1 -1 -0.5 -2t1.5 -2h0.5h0.5q1 0 1.5 0.5
l0.5 0.5l9 15v2t-1 2l28 -17q0 1 -1 0.5t-2 -1.5l-8 -15q-1 -1 -0.5 -2t1.5 -1v-0.5t1 -0.5l1 0.5t1 1.5l9 15v2t-1 1l29 -16h-2t-2 -1l-9 -15q0 -1 0.5 -2t0.5 -2h1h1l0.5 0.5t1.5 0.5l9 15v2t-1 2l150 -86h-308v0zM356 395q0 1 -0.5 1.5l-1.5 1.5l-40 23h-1h-2l-43 -23
q-1 0 -1.5 -1t-0.5 -2t0.5 -1.5l1.5 -1.5l42 -23h0.5h0.5h1h1l41 23l1.5 1.5t0.5 1.5zM311 376l-35 19l37 20l34 -20zM325 425l42 -23l0.5 -0.5l0.5 -0.5q1 0 1 0.5t1 0.5l41 23q1 0 1.5 1t0.5 2t-0.5 1.5t-1.5 0.5l-40 24h-1h-2l-43 -23l-1.5 -1.5t-0.5 -1.5t0.5 -2t1.5 -1
v0zM370 447l34 -19l-36 -20l-35 20zM382 458l42 -24h0.5h0.5h0.5h1.5l41 24q1 0 1.5 1l0.5 1q0 1 -0.5 2t-1.5 1l-40 23q-1 1 -1.5 1t-1.5 -1l-43 -23q-1 0 -1.5 -1t-0.5 -2l0.5 -1t1.5 -1v0zM427 480l34 -20l-36 -19l-35 19l37 20v0zM439 490l42 -23h0.5h0.5h0.5h1.5l41 23
l1.5 1.5t0.5 1.5t-0.5 1.5l-1.5 1.5l-40 23h-1.5h-1.5l-43 -23l-1.5 -1.5t-0.5 -1.5t0.5 -1.5l1.5 -1.5v0zM414 362q0 1 -0.5 2t-1.5 1l-40 23q-1 1 -1.5 1t-1.5 -1l-43 -23q-1 0 -1.5 -1t-0.5 -2l0.5 -1l0.5 -1l42 -24h1h1h0.5h0.5l42 24q1 0 1.5 1l0.5 1v0zM369 343
l-36 19l37 20l34 -20zM471 395q0 1 -0.5 1.5l-1.5 1.5l-40 23h-2h-1l-44 -23q0 -1 -0.5 -1.5t-0.5 -1.5t0.5 -1.5t0.5 -1.5l42 -23h1h1h0.5h0.5l42 23l1.5 1.5t0.5 1.5zM426 375l-36 20l37 20l34 -20l-35 -20v0zM486 453q-1 1 -2 1h-1l-44 -24l-0.5 -1l-0.5 -1q0 -1 0.5 -2
l0.5 -1l42 -23l1 -1h1h0.5t0.5 1l42 23q1 0 1.5 1t0.5 2l-0.5 1t-1.5 1l-40 23v0zM483 408l-36 20l37 19l34 -19l-35 -20v0zM540 486l-44 -23l-0.5 -1t-0.5 -2t0.5 -1.5l0.5 -0.5l42 -24h0.5h1.5h0.5h0.5l42 24q1 0 1 0.5v1.5v1.5t-1 1.5l-40 23q-1 1 -2 1t-1 -1v0zM471 330
l-0.5 1l-0.5 1l-41 24h-1h-2l-43 -24q-1 0 -1.5 -0.5t-0.5 -1.5t0.5 -2t1.5 -1l42 -23l0.5 -0.5l0.5 -0.5q1 0 1 0.5t1 0.5l42 23l0.5 1t0.5 2v0zM426 310l-35 20l37 19l34 -19zM440 360l42 -24h0.5h0.5h1h1l41 24q1 0 1.5 0.5t0.5 1.5t-0.5 1.5t-0.5 1.5l-41 23q0 1 -1 1
t-2 -1l-43 -23q-1 0 -1.5 -1t-0.5 -2t0.5 -1.5t1.5 -0.5v0zM485 382l34 -20l-36 -19l-35 19l37 20v0zM540 369h1h1l41 23l1.5 1.5t0.5 1.5t-0.5 1.5t-0.5 1.5l-41 23h-1h-2l-43 -23l-1.5 -1.5t-0.5 -1.5t0.5 -1.5l1.5 -1.5l42 -23h0.5h0.5v0zM542 414l34 -19l-36 -20l-35 20
zM487 323h-1.5h-1.5l-43 -23l-1.5 -1.5t-0.5 -1.5t0.5 -1.5l1.5 -1.5l41 -23h1h1h0.5h0.5l42 23l1.5 1.5t0.5 1.5t-0.5 1.5t-1.5 0.5l-40 24v0zM484 277l-35 20l36 19l34 -19l-35 -20v0zM544 355q-1 1 -1.5 1t-1.5 -1l-43 -23q-1 0 -1.5 -1t-0.5 -2l0.5 -1t1.5 -1l41 -23
l1 -1h1h0.5t0.5 1l42 23q1 0 1.5 1l0.5 1q0 1 -0.5 2t-1.5 1l-40 23v0zM541 310l-36 19l37 20l34 -19zM601 388h-1.5h-1.5l-43 -23l-1.5 -1.5t-0.5 -1.5t0.5 -1.5t0.5 -1.5l42 -23h1h1h0.5h0.5l42 23l1.5 1.5t0.5 1.5t-0.5 1.5l-1.5 1.5l-40 23v0zM553 428v-2t1 -1l99 -56
q1 0 1 -0.5t1 -0.5l0.5 0.5l0.5 0.5l42 23q1 0 1.5 1t0.5 2l-0.5 1t-1.5 1l-97 57h-2h-1l-44 -24q-1 0 -1 -0.5v-1.5zM599 447l91 -52l-35 -20l-93 53l37 19v0zM362 585l-10 -6l-1 -82l11 7v81zM335 488l1 82l-185 -101l53 -56zM452 555l1 1l-1 1l-43 53l-34 -18l-1 -82
l63 36zM746 565q1 0 1.5 0.5l1.5 1.5l8 15q1 1 0.5 2t-1.5 1q0 1 -1 0.5t-2 -1.5l-9 -15v-2t1 -1l1 -1v0v0zM775 549h1.5t1.5 1l8 15q1 1 0.5 2t-1.5 2h-2t-1 -1l-9 -16v-1t1 -2h0.5h0.5zM804 532q1 0 1.5 0.5l0.5 0.5l9 16q1 0 0.5 1t-1.5 2h-2t-1 -1l-9 -15q-1 -1 -0.5 -2
t1.5 -2h0.5h0.5v0z" />
  </g>

</svg>
