<?xml version="1.0" standalone="no"?>
<!DOCTYPE svg PUBLIC "-//W3C//DTD SVG 1.1//EN" "http://www.w3.org/Graphics/SVG/1.1/DTD/svg11.dtd" >
<svg xmlns="http://www.w3.org/2000/svg" xmlns:xlink="http://www.w3.org/1999/xlink" version="1.1" viewBox="0 0 1024 1024">
  <g transform="matrix(1 0 0 -1 0 960)">
   <path fill="#ffffff"
d="M735 582l-283 163q-3 1 -6.5 1t-6.5 -1l-150 -88q-3 -2 -4.5 -4.5t-1.5 -5.5v-318q0 -3 1.5 -5.5t4.5 -4.5l283 -168q3 -1 6.5 -1t6.5 1l150 92q3 2 4.5 4.5t1.5 5.5v318q0 3 -1.5 6.5t-4.5 4.5zM578 177l-271 159v297l271 -158h1l-1 -298v0zM312 643l133 77l267 -152
l-132 -82l-268 157v0zM582 179v295h1l134 84v-296l-135 -83v0zM556 429l-0.5 1l-1.5 3v0l-1 1q-1 0 -1 1t-1 1t-1 0.5t-1 1.5v0l-216 126h-1q-1 0 -1.5 0.5l-0.5 0.5h-1.5h-0.5v0q-1 0 -1.5 -1l-0.5 -1q0 -1 -0.5 -2l-0.5 -1v0v-155v-1.5v-0.5v-0.5v-0.5v-0.5t1 -0.5
q0 -1 0.5 -1.5l0.5 -0.5v0l0.5 -0.5l0.5 -0.5q0 -1 0.5 -1t0.5 -1t1 -1.5t2 -0.5l216 -127q1 -1 1.5 -1h1.5h0.5h0.5h0.5h0.5v0l0.5 0.5l0.5 0.5v0l1 1v1.5t1 1.5v0v153q1 2 1 3t-1 2zM529 433l-60 -26l-28 -12l-27 44l-62 97l177 -103v0zM341 532l55 -89l-55 -26v57.5v57.5
v0zM351 399l57 26l27 -44l2.5 -2.5l3.5 -3.5q2 0 3.5 -0.5t2.5 -0.5l28 13l56 -93l-180 105v0zM541 300l-56 91l56 23v-114zM257 599l-112 67q-3 2 -7.5 2t-6.5 -4t-2 -8t4 -6q1 -1 1.5 -1h0.5l112 -68q4 -2 8 -1t6 5q2 3 1 7.5t-5 6.5v0zM257 506l-112 69q-3 2 -7.5 2
t-6.5 -4q-2 -3 -2 -7.5t4 -6.5q1 -1 1.5 -1h0.5l112 -69q4 -2 8 -1t6 4q2 4 1 8t-5 6zM257 414l-112 69q-3 2 -7.5 2t-6.5 -4q-2 -3 -2 -7.5t4 -7.5q1 0 1.5 -0.5l0.5 -0.5l112 -68q4 -2 8 -0.5t5 5.5q2 3 1 6.5t-4 5.5z" />
  </g>

</svg>
