<?xml version="1.0" standalone="no"?>
<!DOCTYPE svg PUBLIC "-//W3C//DTD SVG 1.1//EN" "http://www.w3.org/Graphics/SVG/1.1/DTD/svg11.dtd" >
<svg xmlns="http://www.w3.org/2000/svg" xmlns:xlink="http://www.w3.org/1999/xlink" version="1.1" viewBox="0 0 1024 1024">
  <g transform="matrix(1 0 0 -1 0 960)">
   <path fill="#808080"
d="M329 449l133 -78l-45 233zM350 455l60 106l31 -160l-91 54v0zM814 287l-95 490l-1 1q0 1 -0.5 2l-0.5 1v2l-1.5 1.5l-1.5 1.5l-1 1l-1.5 1.5t-1.5 0.5l-1 1q-1 0 -2 0.5t-2 0.5l-2 1h-1h-1.5h-3.5q-1 -1 -2 -1t-1 -1h-1v0l-283 -161q-1 -1 -2 -1.5l-1 -0.5l-1 -1
l-1.5 -1.5l-1.5 -1.5l-191 -334q-4 -7 -2 -14.5t9 -10.5q6 -4 13.5 -2t11.5 8l87 153l119 -70l46 -234q1 -6 6 -10.5t12 -4.5h1.5h1.5q8 2 12 8.5t3 13.5l-93 477l76 44v-160l-21 -38q-4 -6 -2 -13.5t9 -11.5q3 -2 7 -2t7 1v-44l-16 -9v0v-1h-1v0q0 -1 -0.5 -1h-0.5v-0.5
v-1.5v-20q0 -1 0.5 -2t1.5 -2l48 -28h0.5h1.5h0.5h1.5l98 55l1.5 1.5t0.5 1.5v21v0.5t-1 1.5q0 1 -0.5 1.5t-1.5 0.5l-17 9v167l101 -59l46 -234q1 -7 6 -11t12 -4h2h1q4 1 7 3t5 5t3 6.5t0 7.5v0zM627 575v-167l-3 2v168v127h0.5h1.5h0.5h1.5v-130h-1zM519 381v265h1.5h1.5
h0.5h0.5v-309q0 -1 -0.5 -1.5t-1.5 -0.5t-1.5 0.5t-0.5 1.5v44zM620 412l-22 11q-1 1 -2 1t-2 -1l-68 -38v46l87 153l7 -4v-168zM632 616l60 105l31 -159zM631 689v19q1 1 1.5 2t0.5 3v0v1l18 10l-20 -35v0zM620 707v-37l-94 -164v141q2 1 2.5 2.5t0.5 3.5v1v1zM515 363
l-6 3l6 4v-7zM550 343l-24 13v20l70 40l43 -22zM517 123q0 -1 -0.5 -2t-2.5 -1q-1 -1 -2 0t-1 2l-47 241l-138 81l-95 -166q-1 -1 -2 -1.5t-2 0.5t-1.5 2t0.5 2l190 333l1 1l283 162l3 -2l2 -9l-6 -3v2l-1 -2l-10 -6l4 8l-270 -154l95 -488v0zM505 360l10 -6v-12l-10 6v12v0
zM526 337v11l19 -11v-13l-19 11v1v1zM643 375l-91 -51v12l91 51v-12v0z" />
  </g>

</svg>
