<?xml version="1.0" standalone="no"?>
<!DOCTYPE svg PUBLIC "-//W3C//DTD SVG 1.1//EN" "http://www.w3.org/Graphics/SVG/1.1/DTD/svg11.dtd" >
<svg xmlns="http://www.w3.org/2000/svg" xmlns:xlink="http://www.w3.org/1999/xlink" version="1.1" viewBox="0 0 1024 1024">
  <g transform="matrix(1 0 0 -1 0 960)">
   <path fill="#808080"
d="M317 336l-20 12v-7l20 -12v7zM289 345l3 -2l1 4l-4 2v4l-5 3v-13l5 -3v5zM198 546h-0.5h-0.5h-0.5h-0.5q0 -1 -0.5 -1.5l-0.5 -0.5v-54l-4 -3v-6l53 -30l6 5v1l0.5 0.5l0.5 0.5v57q0 1 -0.5 1.5l-0.5 0.5l-52 29v0zM242 461l-40 24l1 1v47l39 -21v-51v0zM196 449h-1v0h-1
v0q-1 0 -1 -0.5v-1.5v-54l-4 -3v-6l53 -30l6 5v1v0.5v0.5v58v0.5t-1 0.5l-51 29v0zM240 365l-40 23l1 1v47l39 -21v-50v0zM297 490v0h-1v0v0l-1 -1v-1v-54l-4 -3v-6l43 -24l6 5v1v0v1v57v1.5t-1 0.5l-42 23v0zM332 411l-31 18l2 1v47l29 -16v-50v0zM893 519q0 4 -2 7.5
t-5 5.5l-225 128v0v0l-216 122q0 1 -0.5 1h-0.5l-17 9q-2 2 -4.5 2h-4.5l-120 -23h-1v0q-1 0 -2.5 -0.5t-2.5 -1.5l-0.5 -0.5l-0.5 -0.5v0l-151 -131q-4 -1 -6.5 -4.5t-2.5 -7.5v-21q0 -3 2 -6.5t5 -5.5l13 -8v-225q0 -4 2 -7t5 -5l92 -54v-3q0 -3 2 -6.5t5 -5.5l75 -44v0v0
h0.5h0.5q1 -1 2.5 -1.5t3.5 -0.5h1h1l1 0.5l1 0.5q1 0 2 0.5t2 1.5v0v0h1v0l1 1l16 -9v-1v0q1 0 2.5 -0.5t2.5 -0.5h1h1h0.5h0.5q1 0 1 -0.5t1 -0.5l92 -54v-2q0 -4 1.5 -7.5t5.5 -5.5l74 -44v0h1v0v0q2 -1 3.5 -1.5t2.5 -0.5h1l1 1h1.5h1.5t1.5 0.5l1.5 1.5h0.5h0.5v0v1h1
l16 -9v-0.5t1 -0.5t2 -0.5t2 -0.5h1.5h0.5h1.5h0.5q1 0 2.5 0.5t2.5 1.5v0v0l273 158q4 2 5.5 5.5t1.5 6.5v214l6 1q5 1 8 5t3 8l1 14v1.5v1.5v0zM874 517v-8l-116 -21v1v0l-197 116l119 22l194 -110v0v0v0zM589 352l-0.5 -0.5l-0.5 -0.5q-1 0 -1 -0.5t-1 -0.5l-204 121
l146 125l203 -122l-142 -122v0zM528 608l-2 -2l-232 140l6 5l237 -141l-7 -1l-0.5 -0.5t-1.5 -0.5zM150 608v13v0.5t1 0.5l137 118v0v0l232 -139l-146 -125l-224 132v0zM737 479l-202 122l14 2l198 -117h-1h-0.5t-1.5 -1l-7 -6v0zM436 766h0.5t0.5 -1l223 -127h0.5h0.5l7 -4
l-119 -22l-240 142l111 21l16 -9v0zM268 302l1 -1h1l1 -1l8 -4v0l65 -39l-4 -2l-1 -1h-1l-77 45l7 3v0zM338 271l-59 35l2 100l57 -33v-102v0zM358 252v7l-11 7v109q0 1 -0.5 2t-1.5 2l-49 28l-19 11h-2h-2l-1.5 -1.5t-0.5 -1.5v-51l-1 -53l-2 1l-7 -3l-91 53v224l197 -117
v0v0v-222l-9 5v0zM484 179l2 -1h1l1 -1l7 -4v0l66 -39l-5 -2v0l-2 -1l-76 45l6 3v0zM555 148l-60 35l2 100l58 -33v-102v0zM575 129v7l-12 7v109q0 1 -0.5 2t-1.5 2l-48 28l-20 11q-1 1 -2 1t-1 -1q-1 0 -1.5 -1t-0.5 -2v-51l-1 -53l-2 1l-8 -3l-91 53v219l197 -116v-218
l-8 5v0zM857 495v-218l-264 -153v220l0.5 0.5t1.5 0.5l154 132l108 20v-1v-1v0zM533 213l-20 12v-7l20 -12v7zM505 222l4 -2v4l-4 2v5l-5 2v-13l5 -3v5zM414 423v0h-1v0h-1q0 -1 -0.5 -1t-0.5 -1v-54l-4 -3l1 -6l53 -30l6 5v1v0.5v0.5v58l-0.5 0.5l-0.5 0.5l-52 29v0z
M459 339l-41 23l2 1v47l39 -21v-50v0zM412 326h-0.5h-0.5h-0.5h-0.5l-0.5 -0.5t-0.5 -1.5v-54l-4 -2v-6l53 -31l6 5v1l0.5 0.5l0.5 0.5v58l-0.5 0.5l-0.5 0.5l-52 29v0zM456 242l-40 23l1 1v48l39 -22v-50v0zM514 367h-0.5h-0.5h-0.5h-0.5q-1 0 -1 -0.5v-1.5v-54l-4 -3v-6
l43 -24l6 5v1h0.5t0.5 1v57q0 1 -0.5 1.5l-0.5 0.5l-42 23v0zM548 288l-30 18l1 1v47l29 -16v-50z" />
  </g>

</svg>
