<?xml version="1.0" standalone="no"?>
<!DOCTYPE svg PUBLIC "-//W3C//DTD SVG 1.1//EN" "http://www.w3.org/Graphics/SVG/1.1/DTD/svg11.dtd" >
<svg xmlns="http://www.w3.org/2000/svg" xmlns:xlink="http://www.w3.org/1999/xlink" version="1.1" viewBox="0 0 1024 1024">
  <g transform="matrix(1 0 0 -1 0 960)">
   <path fill="#ffffff"
d="M735 582l-283 163q-3 1 -6.5 1t-6.5 -1l-150 -88q-3 -2 -4.5 -4.5t-1.5 -5.5v-318q0 -3 1.5 -5.5t4.5 -4.5l283 -168q3 -1 6.5 -1t6.5 1l150 92q3 2 4.5 4.5t1.5 5.5v318q0 3 -1.5 6.5t-4.5 4.5zM578 177l-271 159v297l271 -158h1l-1 -298v0zM312 643l133 77l267 -152
l-132 -82l-268 157v0zM582 179v295h1l134 84v-296l-135 -83v0zM519 466l-154 91q-13 6 -21.5 3t-8.5 -16v-154q1 -15 9 -27.5t21 -19.5l154 -91q12 -6 21 -3t9 16v154q-2 15 -10 27.5t-20 19.5v0zM442 446q17 -10 29.5 -29.5t12.5 -37.5q0 -17 -12 -22t-30 5
q-17 10 -29.5 29.5t-12.5 37.5q0 17 12.5 22.5t29.5 -5.5v0v0zM525 278q0 -2 -2 -3t-4 1l-154 91q-3 2 -5 4t-2 5v96l21 -13q-2 -4 -2 -8v-8q0 -27 19 -57.5t46 -46.5q27 -15 46.5 -7.5t19.5 34.5q0 5 -0.5 10t-1.5 10l20 -13zM525 403q0 -2 -2 -3t-4 1l-30 17q-2 2 -3.5 4
t-2.5 6v29q0 3 2 3.5t4 -1.5l30 -17l4 -4t2 -5v-30z" />
  </g>

</svg>
