<?xml version="1.0" standalone="no"?>
<!DOCTYPE svg PUBLIC "-//W3C//DTD SVG 1.1//EN" "http://www.w3.org/Graphics/SVG/1.1/DTD/svg11.dtd" >
<svg xmlns="http://www.w3.org/2000/svg" xmlns:xlink="http://www.w3.org/1999/xlink" version="1.1" viewBox="0 0 1024 1024">
  <g transform="matrix(1 0 0 -1 0 960)">
   <path fill="#ffffff"
d="M735 582l-283 164q-3 1 -6.5 1t-6.5 -1l-150 -88q-3 -2 -5 -5.5t-2 -6.5v-318q0 -3 2 -6t5 -5l283 -166q1 -1 3 -1h5h3t4 1l150 93q3 3 4 5.5t1 5.5v318q-1 3 -2.5 5.5t-4.5 3.5zM716 262l-134 -84v297v0h1l134 84l-1 -297v0zM711 568l-131 -82l-267 156l133 77zM577 473
v0v0l1 -298l-270 160v297l269 -159v0zM330 564q0 10 8 14t20 -2q11 -7 20 -20t9 -24t-8 -14.5t-21 2.5q-12 5 -20 18t-8 26zM335 514v-146l46 -25v146zM409 473v-146l44 -25v35v49q0 13 11 13t15 -2q6 -3 15.5 -14t9.5 -34v-49.5v-26.5l46 -27v26.5v55.5t-7 54.5
q-9 30.5 -35 46.5q-17 10 -42 4q-4 -1 -13 -3l-1 20l-43 23v0z" />
  </g>

</svg>
