<?xml version="1.0" standalone="no"?>
<!DOCTYPE svg PUBLIC "-//W3C//DTD SVG 1.1//EN" "http://www.w3.org/Graphics/SVG/1.1/DTD/svg11.dtd" >
<svg xmlns="http://www.w3.org/2000/svg" xmlns:xlink="http://www.w3.org/1999/xlink" version="1.1" viewBox="0 0 1024 1024">
  <g transform="matrix(1 0 0 -1 0 960)">
   <path fill="#a62639"
d="M732 588q16 25 31 54t15 48q0 35 -24.5 59t-58.5 24q-23 0 -41.5 -11t-29.5 -29l-35 46l-142 -28l-85 -98l-130 -25l-73 -97l197 -414l93 129l148 9l101 144l167 11l-133 178v0zM719 441v9t-2 10q-1 3 -4.5 6t-6.5 6q-4 3 -7 6t-4 5q-1 7 7.5 14t19.5 13l35 -1l55 -74
l-92 -6q-1 2 -1 5v7v0zM752 515h-20q4 2 7.5 4t6.5 4zM744 525q-4 -2 -8 -4.5t-9 -4.5v-0.5v-0.5l-110 4l-78 107l3 1q2 -7 6.5 -13.5t11.5 -12.5q8 -8 25 -17t36 -18q0 -1 0.5 -1.5l1.5 -1.5v-1h1h2.5t2.5 1q21 -10 38.5 -17t18.5 -8q5 -2 6.5 -2.5t2.5 -0.5v0l8 11
q1 1 4.5 6t8.5 11l28 -38v0zM534 279l-26 -1l-0.5 1l-0.5 1q-2 15 -8.5 35t-24.5 27q-18 6 -32 -1.5t-27 -18.5q-1 0 -2 -1l-2 -2l-13 23q5 2 9.5 5t9.5 6q14 10 29 17t34 -2q5 -3 8.5 -7.5t7.5 -9.5q5 -7 10.5 -12.5t13.5 -5.5h2h3q4 1 7.5 5.5t5.5 10.5l10 -15
q-1 -1 -1 -1.5v-0.5q-1 -5 -2 -9.5t-2 -7.5q-1 -4 -3 -7t-3 -5q-4 -5 -5.5 -10t2.5 -14v0zM496 667v4v4l35 -47l-44 -42q-3 2 -6 4.5t-6 4.5q-4 2 -8 3.5t-8 2.5q-6 2 -11 4t-7 6q-1 3 -0.5 7t3.5 9q4 6 10 7.5t12 1.5q7 0 13.5 1t10.5 7q5 6 5.5 12t0.5 11v0zM445 507
q-11 -7 -21 -15t-19 -17q-4 2 -8.5 3.5l-10.5 3.5q-10 3 -20 7.5t-15 12.5q-1 2 -0.5 5.5t0.5 7.5l0.5 0.5l0.5 0.5l80 13zM437 531l52 49q4 -5 4.5 -12t-1.5 -19q-2 -16 -7 -20.5t-15 -8.5q-4 -2 -8.5 -3.5t-9.5 -4.5q-1 -1 -1.5 -1t-0.5 -1l-13 21v0zM349 500
q5 -8 15.5 -12.5t21.5 -8.5q5 -1 10 -3t8 -4h1l1 1q9 8 19 16.5t21 15.5l12 -19q-2 -1 -3 -2t-3 -2q-11 -8 -21.5 -17.5t-9.5 -18.5q0 -5 4.5 -9.5t13.5 -8.5q1 0 3 -0.5t4 -0.5q8 0 19.5 3.5t20.5 7.5l25 -42l-138 -10l-69 123l45 7v-0.5v-0.5q-1 -4 -1.5 -8t1.5 -7v0z
M484 441q-9 -6 -24 -9.5t-20 -0.5q-8 3 -12 7t-5 8q-1 9 9.5 17.5t21.5 16.5q1 1 2.5 2t2.5 1zM464 487q2 2 4.5 4t4.5 4q1 -2 2.5 -4.5t2.5 -5.5q5 -8 11 -19.5t3 -17.5q-1 -1 -1.5 -2t-1.5 -2l-25 43v0zM391 342q-4 -2 -9 -3t-10 0q-4 1 -8 4.5t-8 7.5l16 26l19 -35v0z
M355 349q4 -5 8 -8t8 -4q6 -2 11.5 -1t10.5 3l13 -23q-2 -2 -4 -3.5t-4 -2.5q-24 -15 -33.5 -12t-26.5 24v0l17 27v0zM524 336q-9 -2 -14.5 3.5t-11.5 12.5q-4 6 -8 10.5t-9 7.5q-19 10 -35 3t-31 -17q-4 -4 -9 -7t-9 -5l-21 37l138 10l23 -39q-2 -6 -5.5 -10.5t-7.5 -5.5v0
zM490 442q2 1 3 2t1 3q3 7 -2.5 18.5t-11.5 21.5q-1 3 -2.5 5.5t-2.5 4.5l-1 -1v0.5v0.5l-2 1q-1 -2 -3.5 -4t-6.5 -5l-11 19q1 0 1.5 0.5l0.5 0.5q5 3 9.5 5t8.5 4q10 4 15.5 9t8.5 22q2 12 1 19.5t-5 13.5l43 41l76 -104h-3l-91 -120l-26 43v0zM632 690q0 7 1.5 13t3.5 12
q7 17 23 27.5t35 10.5q26 0 44.5 -18.5t18.5 -44.5q0 -13 -12 -37t-27 -48q-4 -6 -8 -12.5t-8 -12.5l-4 -6t-4 -5q-1 0 -1.5 1t-0.5 2q-9 12 -19.5 28.5t-19.5 33.5q-1 1 -2 2.5t-1 3.5q-3 5 -6 10.5t-5 10.5q0 2 -1 3.5t-1 2.5q-3 7 -4.5 13t-1.5 10zM613 700
q0 -2 -0.5 -4.5t-0.5 -5.5t1 -7.5t2 -9.5q-5 1 -10 1.5t-11 0.5q-7 0 -14 -1t-13 -4q-2 3 -4.5 5.5t-4.5 5.5q2 2 4 3.5t4 3.5q12 9 18.5 18t4.5 26l24 -32v0zM586 737q3 -19 -3 -28t-19 -20q-2 -1 -4 -3l-4 -4h-1v-1q3 -3 5 -6l4 -6q-9 -4 -15 -11t-8 -16v-4.5v-5.5h-6v0
l-37 50q1 3 3.5 5t6.5 4q9 5 14.5 4.5t9.5 -2.5q7 -2 12 -1t12 13q4 7 6.5 19t3.5 22l11 2l9 -11v0zM563 745q-1 -9 -3 -20.5t-6 -17.5q-7 -12 -11.5 -12.5t-9.5 1.5q-5 1 -11 2t-15 -4q-4 -2 -6.5 -4.5l-4.5 -4.5l-30 41l97 19v0zM461 724l33 -46q0 -3 -0.5 -5.5t0.5 -5.5
q0 -5 -0.5 -10.5t-5.5 -11.5q-4 -5 -10 -6t-12 -1q-7 0 -13.5 -1t-10.5 -9q-3 -6 -4 -10t1 -8q2 -5 7.5 -7t11.5 -4q4 -1 8 -2.5t7 -3.5q4 -2 7 -4.5t5 -4.5l-51 -48l-55 94zM374 627l55 -93l-77 -12q1 2 0.5 3.5t-1.5 3.5q-1 3 -3 5.5t-4 4.5t-3.5 4t-1.5 4q-1 2 -3 4t-5 4
l-3.5 3.5t-2.5 3.5q-1 1 0 3.5t2 4.5q1 4 2.5 8.5t-0.5 8.5q-4 7 -14 13l-20 12l79 15v0zM291 611l0.5 -0.5l0.5 -0.5q10 -5 20.5 -11t13.5 -13q2 -3 1 -7t-3 -8q-1 -3 -1.5 -5.5t0.5 -4.5t3 -4l4 -4l3.5 -3.5t2.5 -3.5t2.5 -4t3.5 -5q2 -2 4 -4.5t3 -4.5q1 -1 1 -2.5v-3.5
l-50 -8l-50 89l41 8v0zM246 599l50 -89l-29 -37l-2 4t-3 5l-2.5 5l-2.5 5q-7 13 -7 18t2 9q2 3 3 7.5t1 12.5q0 9 -9 22.5t-14 20.5l13 17v0zM231 580q6 -8 14 -20.5t9 -20.5q0 -8 -1.5 -12t-2.5 -7q-2 -4 -2.5 -9.5t6.5 -19.5q2 -3 3.5 -5.5t2.5 -4.5q2 -3 3 -5.5t2 -4.5
l-29 -38l-45 95l40 52v0zM268 465q6 -11 8.5 -20t0.5 -17q-2 -7 -8.5 -13t-17.5 -13l-12 25l29 38v0zM279 427q3 9 0 18.5t-9 21.5l29 38l69 -123l-16 -26q-5 6 -11.5 12t-14.5 7q-9 2 -19 0t-19 -4q-5 -2 -10 -3l-10 -2l-16 34q12 7 18.5 13.5t8.5 13.5zM289 368
q9 3 18.5 5t17.5 0t14 -7.5t12 -12.5l-17 -27q-11 13 -19 15t-17 1h-8.5t-10.5 1l-9 21q4 0 9 1.5t10 2.5v0zM298 340q9 0 16.5 -2t18.5 -14l-25 -41l-28 58q5 -1 9.5 -1h8.5v0zM361 172l-50 105l26 42q16 -20 26.5 -23.5t36.5 12.5q2 1 4 2.5t3 2.5l25 -43l-71 -98v0z
M437 273l-25 44q1 1 2.5 1.5t2.5 1.5q12 10 26 18t30 1q17 -6 23 -25t9 -34v-1.5v-0.5zM536 280q-3 8 -1.5 12.5t4.5 8.5q1 3 3 6t3 7q2 3 3 7.5t1 9.5l29 -49l-42 -2v0zM583 285l-32 54q2 7 4 13.5t5 10.5q6 7 12.5 10t13.5 3h0.5h0.5q13 0 25 -8t19 -16l-48 -67v0z
M632 354q-8 10 -20 17.5t-25 7.5h-0.5h-0.5q-8 0 -15 -3.5t-13 -10.5q-3 -4 -5 -10t-4 -13l-8 14q1 3 2 6.5t2 6.5q2 7 3.5 13t4.5 9q11 16 25 17t23 -1q15 -4 27.5 -14t16.5 -21l-13 -18v0zM647 375q-5 11 -17.5 21t-28.5 14q-9 2 -24 0.5t-26 -17.5q-3 -4 -5 -10t-4 -13
q0 -3 -1 -5.5t-2 -5.5l-20 34l90 120h5l66 -91l-33 -47v0zM684 427l-63 86l96 -3q-11 -6 -18.5 -13t-5.5 -14q0 -3 3.5 -6t7.5 -7q4 -2 7 -5t4 -6q2 -5 2 -9.5t-1 -8.5v-6.5t1 -5.5l-33 -2v0zM557 504q-6 11 -8.5 20.5t7.5 19.5v1l-1 1q-6 5 -12 11.5t-12 12.5q-2 2 -4 4.5
t-4 4.5v-1q0 1 -0.5 1.5l-0.5 0.5l-2 -1q7 -18 3.5 -25.5t-11.5 -15.5q-4 -3 -8 -7t-7 -10q-8 -13 -6 -20t8 -15q3 -4 6 -8.5t5 -10.5l1 -1h1q10 3 21.5 10.5t25.5 21.5h1l-1 1q0 1 -1 2.5t-1 2.5v0zM512 469q-3 6 -5.5 10.5t-5.5 8.5q-6 8 -7.5 14t5.5 18q3 6 7 9.5t7 7.5
q8 6 12 13.5t-1 23.5q2 -1 3 -2.5t2 -3.5l12 -12t12 -11q-10 -11 -7 -21t8 -21q1 -1 1.5 -2t0.5 -2q-12 -13 -23.5 -20.5t-20.5 -9.5v0zM674 645h1.5h0.5h2h2h2h2h1.5h1.5l0.5 0.5l0.5 0.5v0.5v0.5v0v0v25h7q4 0 7 0.5t6 1.5t5.5 2t4.5 3t3.5 4t2.5 4q1 3 1.5 6t0.5 6
q0 2 -0.5 4.5t-1.5 4.5q0 2 -1 3.5t-3 2.5q-1 2 -2.5 3t-3.5 2q-1 1 -3 1.5t-4 1.5h-2.5h-3.5q-1 1 -2.5 1h-2.5h-18q-1 0 -2 -0.5t-2 -1.5q-1 0 -1.5 -1.5t-0.5 -2.5v-70l0.5 -0.5l0.5 -0.5l0.5 -0.5l0.5 -0.5v0zM688 710h7h2.5h2.5t2 -0.5t2 -0.5l2 -2l2 -2q0 -2 0.5 -3.5
t0.5 -3.5v-3t-1 -3q0 -1 -0.5 -2t-1.5 -2t-2 -1.5t-2 -1.5q-2 0 -3.5 -0.5t-3.5 -0.5h-7v26v0z" />
  </g>

</svg>
