<?xml version="1.0" standalone="no"?>
<!DOCTYPE svg PUBLIC "-//W3C//DTD SVG 1.1//EN" "http://www.w3.org/Graphics/SVG/1.1/DTD/svg11.dtd" >
<svg xmlns="http://www.w3.org/2000/svg" xmlns:xlink="http://www.w3.org/1999/xlink" version="1.1" viewBox="0 0 1024 1024">
  <g transform="matrix(1 0 0 -1 0 960)">
   <path fill="#808080"
d="M944 581q-6 12 -17.5 19t-23.5 7q-7 0 -13 -3t-11 -8q-1 -2 -2.5 -4t-3.5 -3l-44 26l73 28q2 1 3.5 3.5t1.5 5.5q-1 3 -3 4.5t-5 1.5l-140 -2l-173 102q-3 1 -6 1t-6 -1l-186 -109l-88 -1q-3 0 -5 -1.5t-2 -4.5q-1 -2 -0.5 -4.5t2.5 -4.5l29 -21l-244 -142
q-3 -2 -4.5 -4.5t-1.5 -5.5t1.5 -5.5t4.5 -4.5l47 -27q13 -8 26 -15.5t26 -15.5q16 -9 31.5 -18t31.5 -18q27 -16 54.5 -32t54.5 -32l34 -20q11 -7 22 -13t22 -13q22 -13 44.5 -26t45.5 -26q7 -4 14 -8.5t14 -8.5q15 -10 31 -19t33 -16q7 -3 13.5 -4t13.5 -1q16 0 34 7
t35 19l5 5t3 2v0v0q9 9 26 33q16 25 36 58t42 71q22 39 42 75q49 80 65 106t18 30v0q6 8 6 18t-6 20v0zM530 213q-21 12 -42 24.5t-41 24.5l81 47l92 -54l-81 -47q-2 1 -4.5 2.5t-4.5 2.5v0zM188 507l60 -35l-81 -46l-14 8l-14 8l-31 18l80 47v0zM294 568l59 -34l-36 -21
l-7 6q-2 1 -4.5 1.5t-4.5 -0.5l-7 -2q-1 -1 -1.5 -2t-0.5 -2q-2 -1 -2.5 -4.5t1.5 -4.5l5 -5l-45 -26l-59 35zM360 633h12l2 -5l1 -6q1 0 1.5 -0.5l0.5 -0.5h1v0q1 0 1.5 1t0.5 2l-1 3l-1 3l-1 2v1l33 1l3 -11q0 -1 0.5 -1h1.5v0h1l0.5 1l0.5 1l-3 10h33l3 -10q0 -1 1 -1.5
l1 -0.5h0.5h0.5l1.5 1.5t-0.5 1.5l-2 10h32l4 -11l0.5 -0.5t1.5 -0.5v0v0q1 0 1.5 1t0.5 2l-3 9l33 1l1 -4l1 -3l1 -4q0 -1 0.5 -1h1.5h0.5h0.5q1 0 1 0.5v1.5l-1 5l-1 4l-1 1h3l30 1l3 -11l1.5 -1.5t1.5 -0.5v0v0l1.5 1.5t0.5 1.5l-3 10h33l3 -11v0v0l1 -1h1v0v0h1l0.5 1
t0.5 2l-3 9l33 1l3 -11q0 -1 1 -1.5l1 -0.5l0.5 0.5l0.5 0.5q1 0 1.5 0.5t-0.5 1.5l-2 10l32 1l4 -11q0 -1 0.5 -1.5t1.5 -0.5v0v0q1 0 1.5 1t0.5 2l-3 10h33l1 -4l1 -4l1 -3l0.5 -0.5t1.5 -0.5h0.5h0.5q1 0 1 1v2l-1 3l-1 4l-1 2h5l28 1l1 -3l2 -8l1.5 -1.5t1.5 -0.5v0v0
l1.5 1.5t0.5 1.5l-1 3l-2 7l32 1l4 -12l0.5 -0.5t1.5 -0.5v0v0q1 0 1.5 1t0.5 2l-2 7l-1 3l67 1l-361 -142l-3 3l-3 2l-165 127l37 1v0zM493 684l54 -32l-112 -2l58 34v0zM580 735l59 -35l-82 -48h-2l-59 34l84 49v0zM715 655l-150 -3l78 46zM860 570l6 -4q-3 -4 -5.5 -8.5
t-5.5 -8.5q-4 -5 -7 -10t-7 -10q-6 -8 -11 -15.5t-11 -15.5l-78 46l82 48l37 -22v0zM932 553v-1.5t-1 -1.5q0 -1 -0.5 -2t-1.5 -2t-2 -3l-2 -4q-9 -14 -18 -29l-18 -30q-2 -2 -3 -4l-2 -4q-6 -9 -11.5 -18t-10.5 -18q-10 -15 -20 -31t-19 -32q-2 -2 -3 -3.5t-2 -3.5l-0.5 -1
l-0.5 -1q-18 -29 -36.5 -59.5t-36.5 -60.5q-2 -4 -5 -8t-5 -8q-4 -5 -7.5 -10.5t-6.5 -11.5q-6 -12 -13.5 -20t-16.5 -14q0 1 0.5 1.5l1.5 1.5q2 2 3.5 5l2.5 5q1 4 2 8.5t0 9.5q-2 19 -13.5 31t-26.5 12q-3 0 -6 -0.5t-6 -1.5q8 10 15 20l14 20q1 2 2.5 4t3.5 3
q6 10 12.5 18.5t12.5 17.5q1 1 1.5 2t0.5 2q13 18 26 36.5t27 37.5l0.5 1t1.5 2q2 4 5 7.5t6 7.5q8 12 17 25t18 25q1 2 2.5 4t2.5 4q2 2 4 5l4 6l0.5 1t1.5 2q5 7 10.5 14.5t10.5 14.5q4 6 7.5 11t6.5 10q3 4 6 8.5t6 8.5q1 3 3 5t4 5q1 2 3 4t4 5q1 1 2 2.5t2 3.5
q2 2 5 3.5t7 1.5q8 0 15.5 -5t12.5 -13q2 -4 3 -9.5t-2 -11.5v0zM679 219l-19 -30q-11 -1 -18.5 1.5t-10.5 6.5q-1 2 -1.5 3.5t-0.5 3.5q4 5 14.5 15t23.5 8q2 0 4 -1t4 -3q2 -1 2.5 -1.5l1.5 -1.5v-1zM263 370l80 47l30 -17l29 -49l-54 -31q-22 12 -43 24.5t-42 25.5v0z
M399 435l-8 -3l-1 1l-5 8v0l2 -1v1l13 -6h-1v0zM377 476q1 0 1.5 -1t1.5 -1q0 -2 0.5 -3t0.5 -2q1 -1 0.5 -1.5t-0.5 -1.5q-1 -2 -2.5 -3.5t-4.5 -2.5v0v0h-0.5h-0.5q-1 0 -1.5 -0.5t-1.5 -0.5q-4 -1 -7 -0.5t-7 0.5l-6 2t-6 3q-3 3 -3.5 5.5t0.5 5.5q1 2 2.5 3.5t4.5 2.5
q2 0 4 0.5t4 0.5h2h2q5 0 9.5 -1.5t7.5 -4.5v0zM534 428l-23 -13l-67 30l5 3q2 0 2 0.5v1.5l-2 1q-1 1 -2 1t-2 -1l-8 -2l-22 10l34 19l85 -50v0zM453 480l23 14l12 -9q1 -1 2.5 -1.5t2.5 -0.5t1.5 0.5t1.5 0.5l77 30l55 -31l-90 -52l-85 49v0zM586 363l-198 91q2 1 3 2.5
t2 3.5q1 1 1 1.5v1.5l205 -95l17 -11l-4 1l-26 5v0zM360 420l-6 -2q-1 0 -1.5 -1t0.5 -1l2 -2h1.5h2.5l4 2v-1v0l3 -5v0l2 -4l-21 13l10 6l3 -5v0zM456 311v-16l-17 16l-84 138q5 -1 10 -1t10 1l4 -7l2 -3l2 -3l3 -6l3 -5l1 -1l66 -110v-3v0zM602 372l-87 41l23 13l92 -53
l-15 -10zM542 428l90 53l92 -54l-90 -52l-92 53v0zM728 425l28 -17q-13 -18 -26 -36.5t-26 -37.5l-66 39l90 52v0zM731 427l64 37q-6 -9 -12.5 -18t-13.5 -19q-2 -4 -5 -8t-6 -7l-6 3zM800 472l-72 -43l-93 54l102 59l80 -47l-8 -12t-9 -11v0zM632 485l-54 31l121 48l34 -20
l-101 -59v0zM473 497l-24 -14l-88 51l36 21zM445 480l-34 -19l-17 7q-1 3 -2.5 5t-4.5 5q-4 4 -11 6t-14 3l-8 7q-1 1 -3 1h-3l-6 -2l-22 17l37 22l88 -52v0zM318 483q0 -1 0.5 -1.5l0.5 -0.5l3 -2l-5 -2q-1 -1 -1.5 -2t1.5 -2l8 -6q-2 -4 0 -8.5t6 -8.5q3 -2 7 -4t8 -3
l9 -15l-12 -7l-88 51l44 26l19 -15v0zM426 373l-32 54l12 5l8 -4v0l67 -31l-49 -28zM485 395l97 -44h11l-65 -38l-92 54l49 28v0zM600 351l26 -1v0v0v0h1v0h1.5t0.5 1v2t-1 1l-10 7l16 9l68 -39q-9 -12 -17.5 -24t-17.5 -25l-43 -24l-92 53l68 40v0zM647 267l14 8
q-5 -7 -9.5 -14t-9.5 -14l-14 8zM737 546l-33 19l98 39l17 -10l-82 -48v0zM394 557l-37 -21l-59 34l45 27l51 -40v0zM171 423l80 47l88 -51l-80 -47q-2 1 -3 2t-3 1q-15 9 -31 18.5t-31 18.5q-5 3 -10 5.5t-10 5.5v0zM352 318l52 30l28 -47v0h1l23 -14l0.5 -0.5t1.5 -0.5
v0.5t1 0.5l0.5 0.5t0.5 1.5v1v0v0l1 24v1l-1 1l-29 48l1 1l93 -54l-82 -47l-1 0.5t-2 1.5q-11 6 -22 12.5t-21 12.5l-35 20q-2 2 -5 3.5t-5 3.5v0zM624 253l15 -9l-6 -8t-6 -9l-0.5 -0.5l-0.5 -0.5v-1v0q0 -1 -2 -4.5t-2 -9.5q-1 -4 -0.5 -9t3.5 -9q4 -6 11.5 -9t19.5 -3h3
h3q1 1 2 1t1 1l19 31q7 -10 4 -20t-5 -18q-4 -3 -8 -5.5t-8 -4.5q-2 0 -3.5 -1t-3.5 -1q-5 -2 -10.5 -3t-11.5 -1q-5 0 -9 0.5t-8 2.5h-0.5h-0.5q-16 6 -31 15l-30 18q-4 3 -8 5t-8 5l81 47v0zM445 593l60 -46l0.5 -0.5t1.5 -0.5v0.5t1 0.5l10 4l121 47v0.5v0.5q1 0 1.5 1
t0.5 2h-0.5t-0.5 1l-1 0.5l-1 0.5h-1l-193 -3q-1 0 -1.5 -1t-1.5 -2l0.5 -1t0.5 -2l3 -2v0zM458 595l162 3l-113 -45l-54 42h5z" />
  </g>

</svg>
