<?xml version="1.0" standalone="no"?>
<!DOCTYPE svg PUBLIC "-//W3C//DTD SVG 1.1//EN" "http://www.w3.org/Graphics/SVG/1.1/DTD/svg11.dtd" >
<svg xmlns="http://www.w3.org/2000/svg" xmlns:xlink="http://www.w3.org/1999/xlink" version="1.1" viewBox="0 0 1024 1024">
  <g transform="matrix(1 0 0 -1 0 960)">
   <path fill="#a62639"
d="M265 457l-59 32q0 1 -0.5 1h-0.5h-0.5t-0.5 -1q-1 0 -1 -0.5v-0.5v-62l-5 -4v-6l61 -35l7 6v1v0.5v0.5v66v0.5t-1 1.5zM257 393l-47 26l2 2v54l45 -24v-58zM263 346l-60 33v0h-1h-0.5t-0.5 -1l-0.5 -0.5l-0.5 -0.5v-62l-5 -3l1 -7l61 -35l6 6v1l0.5 0.5l0.5 0.5v66
q0 1 -0.5 1.5l-0.5 0.5v0zM254 282l-46 27l2 1v54l44 -24v-58v0zM368 399l-48 26q0 1 -0.5 1h-0.5h-0.5t-0.5 -1q-1 0 -1 -0.5v-0.5v-62l-5 -4v-6l50 -29l7 6v1v0.5v0.5v66q0 1 -0.5 1.5l-0.5 0.5v0zM360 335l-36 20l2 2v54l34 -18v-58v0zM885 310l-1 1h-1v0v0
q-89 96 -106.5 112.5t-19.5 17.5q-4 1 -9 1t-11 -1l-3 3v46q9 15 13 30.5t4 32.5v5.5v5.5q1 2 1 5v6q0 1 0.5 2.5t0.5 2.5l1 17v1.5v0.5q1 4 -0.5 7.5t-3.5 5.5q-9 56 -60 94t-120 38q-12 0 -22.5 -1t-21.5 -3l-37 21h-0.5t-0.5 1l-19 10q-2 1 -4 1.5t-4 0.5h-1.5h-1.5
l-138 -26h-0.5h-0.5q-1 -1 -2.5 -1.5t-2.5 -0.5q0 -1 -0.5 -1h-0.5v0l-174 -150q-4 -2 -7 -6t-3 -9v-23q0 -4 2.5 -8t5.5 -6l16 -9v-259q0 -4 2 -7.5t5 -5.5l106 -62v-3q0 -4 2 -8t6 -6l85 -50q0 -1 0.5 -1h0.5v0h1q2 -1 4 -1.5t5 -0.5q0 1 1 1h2q1 1 2 1t2 1v0v0v0v0
l0.5 0.5l0.5 0.5v0v0h1l18 -10v0v0q2 -1 3.5 -1.5t2.5 -0.5h1.5h0.5h1.5h1.5t2.5 0.5t2.5 1.5v0v0l305 177l74 -82l0.5 -1t1.5 -2h0.5t0.5 -1q1 0 1.5 -1t1.5 -1q4 -3 9 -4.5t11 -1.5q13 0 27 7t25 19q20 20 24 42t-9 35v0zM390 153v8l-13 8v124q0 1 -0.5 1h-0.5v3l-23 13
l-56 33q-1 1 -2 1h-1l-2 1v-2q-1 -1 -1.5 -2t-0.5 -2v-98v-21l-4 2l-8 -4l-104 61v256l226 -135v-253l-10 6v0zM286 210l3 -2h1l8 -5v0l76 -44l-8 -4l-88 51l8 4v0zM368 291v-117l-69 41v25l1 90l50 -28l18 -11v0zM151 561v12l275 -166q1 -1 1.5 -1h1.5t2 0.5t2 0.5l26 26
l4 -2t4 -3l-36 -35zM725 429l-0.5 -0.5l-0.5 -0.5q-3 -1 -5.5 -2.5t-5.5 -3.5t-5.5 -4.5t-5.5 -4.5q-6 -6 -10 -13t-6 -13q0 -1 -0.5 -1t-0.5 -1l-43 43v0.5v0.5q1 1 1 1.5v1.5q2 5 6 13t13 14q11 7 17.5 8.5t8.5 1.5l10 -11l29 -28l-1 -1h-1v0zM688 381v-1v-1v1v1zM698 469
l-6 6l-0.5 0.5l-0.5 0.5q-1 0 -9 -0.5t-24 -10.5q-13 -9 -17.5 -19.5t-5.5 -15.5q-16 -6 -32 -8.5t-33 -2.5q-22 0 -42.5 4.5t-38.5 12.5q-2 1 -4.5 2.5t-4.5 2.5l-4 2l-4 2q-3 2 -5 3.5t-4 2.5q-26 18 -41 43t-16 54q10 -24 30 -44.5t46 -33.5q3 -1 5.5 -2t5.5 -2
q2 -1 4.5 -2t4.5 -2q3 -1 5.5 -1.5t5.5 -1.5q13 -4 27.5 -6t29.5 -2q44 0 82 17t61 46q3 3 5.5 7t5.5 8q3 5 5.5 10t4.5 10q0 -11 -3 -22t-7 -21q-3 -5 -5.5 -9.5t-5.5 -9.5t-7 -9.5t-8 -8.5v0zM733 605q0 -1 0.5 -2.5t0.5 -3.5v-2v-3v-0.5v-1.5v-0.5v-1.5v-0.5v-0.5v-0.5
v-0.5v-2.5v-2.5v-4t-1 -4v0v0q-1 -8 -3.5 -15.5t-5.5 -15.5q-3 -4 -5.5 -9t-5.5 -9q-22 -30 -59.5 -49t-83.5 -19q-14 0 -26.5 2t-24.5 5q-3 0 -5.5 1t-5.5 2t-5 2t-4 1q-3 2 -5.5 3t-5.5 2q-34 16 -56 42.5t-27 59.5v9.5v8.5q1 1 1 1.5v0.5q2 43 33 76t78 46l8 2l8 2
t8.5 1.5t8.5 0.5q5 1 10 1h10q58 0 102 -29t57 -74q1 -3 2 -6.5t2 -7.5v-2.5v-2.5v0zM831 301l-113 116q1 1 2.5 2t3.5 2q1 1 2 1.5t2 0.5v0.5t1 0.5l112 -117l-5 -2.5t-5 -3.5v0zM389 600l-0.5 -1l-0.5 -1v-16.5v-14.5v-7.5v-6.5q0 -34 17 -63.5t45 -50.5l-22 -21l-271 163
l169 146l134 26l18 -11h1l1 -1l17 -9q-46 -17 -76 -52t-32 -80v0zM410 147v247l19 -11q0 -1 1 -1h1q1 0 2 0.5t2 0.5l41 40q21 -10 44.5 -15.5t49.5 -5.5q17 0 33.5 2.5t32.5 7.5l38 -38q-1 -8 -1 -13.5v-5.5q0 -2 1 -4t2 -3l28 -31l-294 -170v0zM804 227v1q-2 1 -3 3t-1 5
q-1 3 -1 7t1 8q2 8 7 16.5t12 15.5q9 10 20 15.5t21 5.5h4t3 -1q2 0 3 -0.5t2 -1.5l-1 -2h0.5h0.5q0 -1 0.5 -1h0.5q7 -8 3 -23.5t-18 -29.5q-12 -13 -27 -18.5t-24 0.5v0.5v0.5l-1 -2q-1 0 -1 0.5t-1 0.5v0zM717 606q0 4 -0.5 7.5t-1.5 6.5q-1 4 -2.5 8t-3.5 8
q-15 35 -53.5 57.5t-86.5 22.5v0v0q-5 0 -10 -0.5t-10 -0.5q-5 -1 -9 -1.5t-8 -1.5q-49 -10 -80.5 -42t-31.5 -74q0 -4 0.5 -8.5t1.5 -9.5q0 -30 20.5 -55t53.5 -39q3 -1 5.5 -2.5t5.5 -1.5q2 -1 4.5 -2t4.5 -2q3 0 6 -1t6 -1q10 -3 20 -4t21 -1q53 0 93.5 25.5t50.5 62.5
q1 3 1.5 6.5t0.5 7.5q0 2 0.5 3.5t0.5 3.5v1.5v0.5v1v1q1 2 1 4v5q0 1 0.5 2.5t0.5 2.5q0 2 -0.5 3t-0.5 2v3v2v0zM677 515l-2 -2l-2 -2l-1 -1v0q-14 -11 -31 -18.5t-36 -11.5h-1.5h-1.5q-2 -1 -4 -1t-4 -1h-3.5h-2.5q-2 0 -3.5 -0.5t-2.5 -0.5h-7h-6h-7h-6q-2 0 -3.5 0.5
t-2.5 0.5h-3.5h-2.5q-3 1 -5 1t-4 1v0v0h-1.5h-0.5q-3 1 -5.5 1.5t-4.5 0.5q-3 1 -5.5 2t-4.5 1l-6 2t-5 2q-10 4 -19 9.5t-17 11.5h-1v0l-2.5 2.5l-2.5 2.5q-15 13 -23 29.5t-8 34.5q0 42 41 72t99 30q5 0 10 -0.5t9 -0.5q9 -1 17.5 -2.5t15.5 -4.5q18 -5 33 -13.5
t27 -19.5q5 -6 9.5 -11.5t7.5 -11.5q3 -4 4.5 -8.5t3.5 -9.5q0 -3 0.5 -5.5t1.5 -4.5v-4.5v-4.5v-0.5v-0.5v-5v-5q-2 -15 -10 -29t-21 -25v0zM677 619q0 3 -0.5 6t-2.5 6q-4 8 -14 13.5t-22 7.5h-4h-4q-20 0 -34 -9.5t-14 -23.5q0 -13 14 -23t34 -10q19 0 33 10t14 23v0z
M630 592q-18 0 -30.5 8t-12.5 19q0 12 12.5 20t30.5 8q17 0 29.5 -8t12.5 -20q0 -11 -12.5 -19t-29.5 -8zM692 576q-1 2 -3.5 4t-5.5 3q-3 2 -6.5 2.5t-6.5 0.5q-8 0 -14.5 -3t-8.5 -7v0v0q-1 -3 -0.5 -5t1.5 -4l0.5 -0.5l0.5 -0.5q2 -3 2.5 -5.5t0.5 -4.5q-1 -4 -2 -7.5
t-2 -6.5q-2 -4 -2.5 -7t0.5 -5q1 -1 2.5 -1.5t3.5 -0.5q10 0 27 12t17 26v0v0q0 3 -1 5.5t-3 4.5zM652 533h-1.5h-0.5v0v0q0 1 1 3t1 4q2 3 3.5 7.5t1.5 9.5q0 3 -0.5 5.5t-2.5 4.5q0 1 -0.5 1.5l-1.5 1.5q-1 2 -1 2.5t1 1.5q0 1 1 2t3 1q2 2 6 3t8 1h0.5h0.5q5 0 9 -2t7 -4
q2 -2 3 -4t1 -5v-0.5v-0.5q-1 -11 -16 -21.5t-23 -10.5v0z" />
  </g>

</svg>
