<?xml version="1.0" standalone="no"?>
<!DOCTYPE svg PUBLIC "-//W3C//DTD SVG 1.1//EN" "http://www.w3.org/Graphics/SVG/1.1/DTD/svg11.dtd" >
<svg xmlns="http://www.w3.org/2000/svg" xmlns:xlink="http://www.w3.org/1999/xlink" version="1.1" viewBox="0 0 1024 1024">
  <g transform="matrix(1 0 0 -1 0 960)">
   <path fill="#808080"
d="M806 531l-11 6l1 7q0 2 -1 4.5t-2 4.5l-22 29q-3 4 -7.5 5.5t-9.5 -0.5q-1 0 -1.5 -0.5t-1.5 -0.5v0v0l-1.5 -1.5l-1.5 -1.5q-1 0 -1 -0.5t-1 -1.5l-7 -11l-58 34v30q0 2 -1 4.5t-2 4.5l-15 25q-2 3 -5 5.5t-8 2.5q0 1 -1 1h-1q-5 0 -9 -2.5t-6 -6.5l-15 -25
q-1 -2 -1.5 -4t-0.5 -5v-7l-10 5q-6 3 -13 1t-10 -8l-8 -14l-3 5q-1 2 -2 3l-2 2v82q0 2 -0.5 4.5t-2.5 4.5v19v2.5t-1 2.5l-9 26q-2 5 -6 7.5t-9 2.5v0v0q-4 0 -7 -2t-5 -5l-27 39q-2 3 -6 5t-9 2t-8.5 -2.5t-6.5 -6.5l-60 -104q-1 -2 -1.5 -4.5t-0.5 -4.5v-211l-42 -24v3
q0 2 -0.5 4.5t-1.5 4.5l-15 25q-3 4 -7.5 6.5t-9.5 1.5q-6 0 -9.5 -3t-4.5 -6l-14 -24q-1 -2 -2 -4.5t-1 -4.5v-7l-9 5q-6 3 -13 1t-10 -7l-9 -14l-3 4q-2 4 -7 6.5t-11 1.5q-1 0 -5.5 -1.5t-6.5 -6.5l-15 -25q-1 -2 -1.5 -4t-0.5 -5v-48v-1v-2l-2 -168q0 -4 2 -8.5t7 -6.5
l141 -84q2 -1 4.5 -1.5t4.5 -0.5q3 0 5 0.5t4 1.5l424 247q4 3 6.5 7t2.5 8l5 166q0 5 -2 9t-7 7v0zM554 596h1l1 1l11 -17l4 -8q0 -1 0.5 -1t0.5 -1l-12 -21l-9 -7v52q1 0 2 0.5t1 1.5v0zM660 589l77 -45l-1 -1l-1 -3l-13 4v0v0l-87 50h1h1q1 1 1.5 2t0.5 3v34l9 15l9 -16
v-38q0 -2 1 -3l2 -2v0zM755 563l-1 -15v-1v-6v-5l-7 2l-6 2l1 1v0l6 10l7 12v0zM629 261v2v68l3 13t9 19q1 1 1.5 1h0.5q3 -1 5 -12t2 -16v-63l-21 -12v0zM652 276v60l-1 14t-7 17h-2.5t-2.5 -2q-7 -6 -10 -19.5t-3 -14.5v-72l-10 -6v62l-1.5 14t-7.5 17h-1.5t-3.5 -2
q-6 -6 -9 -19.5t-3 -14.5v-72l-8 -5v60l-1.5 14t-7.5 17h-2t-3 -2q-6 -6 -9 -19.5t-3 -14.5v-70l-10 -5v1l3 205l30 17q0 -1 0.5 -2t1.5 -1v0h1h1t1 1l1 3l1 2l3 8l11 30l20 -22q1 -1 2 -1t2 1t1 2t-1 2v1l39 21v-200l-11 -6v1v0zM592 240v1v69l3 13t9 19q1 1 1.5 1h0.5
q4 -1 5.5 -12t1.5 -16v-63l-21 -12v0zM558 221v67l3 13.5t9 18.5q1 1 1.5 1h0.5q4 -1 5.5 -12t1.5 -16v-61l-21 -12v1v0zM534 206v35q1 0 1 0.5v0.5h-0.5h-0.5v52q0 3 -2.5 21t-10.5 22q-2 1 -4.5 0.5t-4.5 -2.5q-12 -9 -17.5 -27.5t-5.5 -20.5v-108l-5 -2v1v204
q7 19 17.5 49.5t12.5 35.5q2 -2 10 -17.5t17 -33.5l-3 -206v-2zM491 181v9v0h1v0v0l35 21q0 -2 0.5 -4t0.5 -4v-0.5t-1 -0.5l-36 -21v0zM491 287l3 11t8 22q13 0 18 -26.5t7 -53.5v0v0l-10 -5v9v1v0h-1v0l-25 -13v55v0zM515 233l-24 -12v9l24 13v-10v0v0zM491 219v0h1v0v0
l35 18v-6v-5l-36 -19v12v0zM491 204l36 19v-4.5v-5.5l-36 -21v12v0zM563 544l98 -58l-41 -22l-19 19q0 1 -1 1h-1q-1 0 -1.5 -0.5l-0.5 -0.5l-15 -40l-33 -17l1 109l13 9v0zM539 693l6 3v-96q-1 0 -1 -1v-1l-3 -177q-7 15 -15.5 31.5t-11.5 16.5h-1v0q-2 -3 -12.5 -33
t-16.5 -47v273l55 31v0zM479 678v-6l-1 -1l-1 -1l-9 4v36l4 15l7 -18v-29v0zM669 286v218l12 20l-2 -27l1 -205v0v-0.5v-0.5l-11 -7v2v0zM778 533l-1 -6v-6v-2l-6 -173v0l-1 -1l-85 -48v200l1 30l19 -24l1 -0.5l1 -0.5q1 0 1.5 0.5l1.5 1.5l11 34l34 -9v0v0h1v0l0.5 0.5
t1.5 0.5v0v0v0v0v0v0l0.5 0.5t0.5 1.5v0v0v6l1 6v11l1 11l17 -22v-11v0zM600 608l1 -1l115 -66l-10 -30l-20 26v0h-1v0v0v0v0h-0.5h-1.5v0v0v0v0h-0.5t-0.5 -1h-0.5h-0.5l-17 -30l-0.5 -0.5l-0.5 -0.5v-14l-97 57l12 22q1 0 1.5 0.5t0.5 1.5zM547 716l-6 10l-2 2l-2 4v2
l4 14l6 -17v-15v0zM531 720l6 -7l4 -7l3 -4h-1l-6 -4l-6 -3l-47 -27v2v0v1v7l5 101v2l42 -61v0zM483 773l-3 -55l-6 16q0 1 -0.5 1.5t-1.5 0.5t-2 -0.5t-1 -1.5l-7 -23v-0.5v-0.5v-34l-29 14l50 86v-3v0zM433 681l44 -20v-248l-45 54v0.5v0.5v214l1 -1v0zM427 462l1 -1
l49 -60v-7l-20 -12l-10 15v0.5v0.5v0v0h-0.5h-0.5h-0.5h-0.5v0v0v0h-1h-0.5t-0.5 -1v0v0l-22 -34l-12 3l-0.5 0.5l-0.5 0.5l-74 42l17 9h1v0l5 4l4 1v0v1l66 38v0zM442 385l-2 -27l-13 4l15 23v0zM344 427v-4v-1v-1l-15 -9l-7 4q0 1 0.5 1h0.5l2 2t1 3v34l8 15l10 -16v-28v0
zM286 431l1 -1l116 -66l-11 -31l-20 26v0.5v0.5v0v0h-0.5h-0.5h-0.5h-0.5v0h-1v0v0l-0.5 -0.5l-0.5 -0.5v0v0l-18 -30v-0.5v-0.5v-15l-89 51v0v0v30l0.5 0.5l0.5 0.5l24 36v0zM261 358l89 -51v-60l-89 50v61zM252 402v-4q0 -1 1 -2.5t2 -1.5v-217v-1l-23 13l2 163v1v1v50
l9 15l9 -16v-1v0zM261 174v121l89 -50v-125l-89 52v2zM355 118v209l12 20l-1 -28v-208l-11 6v1v0zM371 112v207l2 31l18 -24q1 -1 1.5 -1h1.5t1.5 0.5t0.5 1.5l11 34l35 -9h1t1 1q1 0 1 0.5v1.5l2 33l15 -22l1 -200v-2l-92 -54v2v0zM468 169l-1 198v1v1l-7 9l17 10v-213
v-0.5v-0.5v-0.5t1 -0.5l-10 -6v2v0zM787 353l-10 -6v2l5 167v2l10 -6zM709 486l-11 -6v0v-1v-31v-1v0h0.5h0.5v0v0l11 6v0v1v31v0.5v0.5h-1v0v0zM708 454l-8 -5v30l8 4v-29zM726 497l-10 -6v-0.5v-0.5v-32v0v0v-1h1v0.5v0.5l10 6h1v1v31v0.5t-1 0.5v0h-1zM726 465l-8 -5v30
l8 4v-29v0zM744 506l-10 -5q0 -1 -0.5 -1h-0.5v-32l0.5 -0.5l0.5 -0.5v0v0h0.5h0.5l10 6l0.5 0.5l0.5 0.5v31q0 1 -0.5 1h-0.5h-0.5h-0.5zM743 475l-8 -5v29l8 5v-29zM751 510v-32l0.5 -0.5l0.5 -0.5v0v0h0.5h0.5l10 6q0 1 0.5 1h0.5v32h-0.5h-0.5q0 1 -0.5 1t-0.5 -1
l-10 -5l-0.5 -0.5zM753 509l9 5v-29l-9 -5v29zM562 406l-10 -6h-1v-1v-31v-0.5t1 -0.5v0v0h0.5h0.5l10 6v0.5v0.5v31v0.5v0.5h-0.5h-0.5v0zM561 374l-8 -4v29l8 4v-29zM580 417l-11 -6v0v-1v-31v-1v0h1v0v0v0l11 6v0.5v0.5v31v0.5v0.5h-1v0v0zM579 385l-8 -5v30l8 4v-29z
M597 426l-10 -5v-0.5v-0.5v-32v-0.5v-0.5h0.5h0.5v0v0l10 7h1v0v32v0h-1v1zM597 395l-8 -5v29l8 5v-29v0zM615 437l-10 -6v-0.5v-0.5v-32v0v0l0.5 -0.5l0.5 -0.5v0.5v0.5l10 6h1v1v31v0.5t-1 0.5v0h-1v0zM615 405l-8 -5v30l8 4v-29zM635 447l-11 -6v0v-1v-31v-1v0h0.5h0.5v0
v0l11 6v0.5v0.5v31v0.5v0.5h-1v0zM634 415l-8 -5v30l8 4v-29zM653 457l-11 -5v-1v0v-32v-0.5v-0.5h1v0v0v0l11 6v0.5v0.5v31v1v0h-1v0zM652 426l-8 -5v29l8 5v-29zM709 408l-11 -6v-0.5v-0.5v-64v-0.5v-0.5h0.5h0.5v0v0l11 6v1v0v64v0.5v0.5h-1v0zM708 344l-8 -5v62l8 4v-61
zM726 419l-10 -6v-0.5v-0.5v-64v-0.5v-0.5v0h1v0v0l10 6q1 0 1 0.5v0.5v64v0l-1 1v0h-1v0zM726 355l-8 -5v61l8 5v-61zM744 428l-10 -5q0 -1 -0.5 -1h-0.5v-64q0 -1 0.5 -1h0.5v0v0h0.5h0.5l10 6h0.5t0.5 1v63q0 1 -0.5 1h-0.5h-0.5h-0.5v0zM743 364l-8 -5v62l8 5v-62z
M762 438l-10 -5l-0.5 -0.5l-0.5 -0.5v-64l0.5 -0.5l0.5 -0.5v0v0h0.5h0.5l10 6l0.5 0.5l0.5 0.5v64h-0.5h-0.5q0 1 -0.5 1t-0.5 -1zM762 374l-9 -4v61l9 5v-62zM395 306l-10 -6h-1v-1v-31v-1h1v0v0h0.5h0.5l10 6v0v1v31v0.5v0.5h-0.5h-0.5v0zM394 274l-8 -5v30l8 4v-29z
M413 317l-11 -6v-0.5v-0.5v-32v0v0q1 0 1 -0.5v-0.5v0.5v0.5l11 6v0v1v31v0.5v0.5h-1v0v0zM412 285l-8 -5v30l8 4v-29zM430 326l-10 -5v-1v0v-32v-0.5v-0.5v0h1v0v0l10 6q1 0 1 0.5v0.5v31v1h-1v0h-1zM430 295l-8 -5v29l8 5v-29zM448 336l-10 -5v-0.5v-0.5v-32v-0.5v-0.5
h0.5h0.5v0v0l10 7h1v0v32v0h-1v1zM448 305l-8 -5v29l8 5v-29v0zM395 228l-10 -6q-1 0 -1 -0.5v-0.5v-64v-0.5t1 -0.5v0v0h0.5h0.5l10 6v1v0v64v0.5v0.5h-0.5h-0.5v0zM394 164l-8 -5v62l8 4v-61zM413 239l-11 -6v-0.5v-0.5v-64v-0.5v-0.5h1v0v0v0l11 6v0.5v0.5v64v0v1h-1v0z
M412 175l-8 -5v62l8 4v-61zM512 583l-10 -5q0 -1 -0.5 -1h-0.5v-64q0 -1 0.5 -1h0.5v0v0h1v0l10 6h0.5t0.5 1v63q0 1 -0.5 1h-0.5h-0.5h-0.5zM512 519l-9 -5v62l9 5v-62zM530 594l-10 -6h-1v0v-65v0h1v-1v0h0.5t0.5 1l10 6v0v1v63v0.5v0.5h-0.5h-0.5zM529 530l-8 -5v62l8 4
v-61zM430 248l-10 -5v-1v0v-64v-1v0v0h1v0v0l10 6h1v1v63v1h-1v0h-1v0zM430 184l-8 -5v62l8 5v-62zM448 258l-10 -5v-0.5v-0.5v-64v-0.5v-0.5h0.5h0.5v0v0l10 6q1 0 1 0.5v0.5v63v1h-1v1l-1 -1v0zM448 195l-8 -5v61l8 5v-61zM456 608h0.5h1.5q3 1 6 3.5t5 6.5t2.5 9t-0.5 10
q-1 11 -7.5 18t-14.5 6q-7 -1 -11 -10t-3 -20q2 -10 8 -16.5t13 -6.5v0zM451 657q6 0 10.5 -6t5.5 -14q1 -5 0.5 -9.5t-1.5 -7.5q-2 -4 -4 -6t-5 -2h-0.5h-0.5q-6 0 -10.5 6t-6.5 14q-1 9 2 16.5t9 8.5h0.5h0.5zM512 617h0.5h1.5q7 0 12.5 7t7.5 17q2 11 -2 19.5t-12 9.5
q-7 2 -13.5 -5t-8.5 -18t2 -19.5t12 -10.5v0zM502 646q1 9 6 15t10 6h1l1 -1q6 0 9 -7.5t1 -16.5q-1 -10 -6.5 -16t-11.5 -5q-5 1 -8 8.5t-2 16.5v0z" />
  </g>

</svg>
