<?xml version="1.0" standalone="no"?>
<!DOCTYPE svg PUBLIC "-//W3C//DTD SVG 1.1//EN" "http://www.w3.org/Graphics/SVG/1.1/DTD/svg11.dtd" >
<svg xmlns="http://www.w3.org/2000/svg" xmlns:xlink="http://www.w3.org/1999/xlink" version="1.1" viewBox="0 0 1024 1024">
  <g transform="matrix(1 0 0 -1 0 960)">
   <path fill="#a62639"
d="M895 539l-334 189q-8 5 -20.5 4.5t-20.5 -5.5l-146 -85q-9 -5 -15 -15.5t-6 -20.5v-143h-1.5h-0.5q-8 2 -15 1.5t-11 -1.5t-7.5 -1t-7.5 1q-2 1 -4 1.5t-4 1.5q-7 3 -15 5.5t-22 2.5h-8.5t-9.5 -1q-28 -3 -69 -22t-56 -43q-12 -21 -13.5 -36t8.5 -29l3.5 -3.5t6.5 -5.5
v-7t1 -8q2 -16 11.5 -26.5t20.5 -8.5v0v0v0q1 0 2.5 0.5t3.5 1.5q5 2 11.5 5t6.5 4v1.5v0.5q34 -21 72.5 -44t66.5 -39v-7.5t1 -7.5q2 -16 11.5 -26.5t20.5 -8.5q1 0 2.5 0.5t2.5 1.5q6 2 12.5 5t6.5 4t0.5 3t0.5 4q4 -2 7.5 -3t6.5 -1q4 0 7.5 1t7.5 3q14 7 67 33t61 41
q4 9 3.5 22t-5.5 28l41 -24v-6t1 -7q2 -15 11 -25t19 -8q2 0 3.5 0.5t2.5 1.5q5 2 11.5 4.5t6.5 4.5v1v2l73 -42q3 -2 7.5 -3.5t8.5 -1.5q0 -1 1 -1.5l1 -0.5q1 0 1.5 0.5l0.5 0.5h0.5h0.5q5 0 10.5 1.5t10.5 4.5l148 85q9 5 15 15.5t6 20.5v174q0 10 -6.5 20.5t-14.5 15.5
v0zM901 329q0 -6 -4 -13t-10 -10l-27 -16v11q0 1 -0.5 1t-0.5 1h-1.5h-0.5l-67 -39l-0.5 -0.5l-0.5 -0.5v-14l-50 -29q-2 -1 -5.5 -2t-7.5 -1v17l175 102v-7v0zM856 288l-63 -37v11l63 36v-10v0zM712 220l-32 19v105l29 -16v74l-29 17v15l41 -23v-130q-1 -1 -1 -1.5v-1.5
v-42v-1t1 -1v-16q-3 0 -5 0.5t-4 1.5zM628 270q0 2 -0.5 3.5t-0.5 3.5q-3 16 -12 26t-19 8q-5 -1 -9 -4.5t-6 -9.5l-55 32q-5 8 -10.5 15.5t-11.5 14.5q-9 10 -14.5 16.5t-9.5 10.5q-6 7 -10 11.5t-14 10.5q-20 14 -44.5 28.5t-44.5 22.5v69l47 -28v72l-47 27v7q0 2 1 4.5
t2 5.5l261 -153v-18l-36 21v-72l36 -22v-104l-3 2v0zM441 210v10l56 33v-4v-9v-1l-56 -32v3v0zM520 264q-3 -2 -8 -6t-12 -8v8l-62 -36v-2q-13 -6 -22.5 -9.5t-14.5 -5.5q-11 -2 -18 1.5t-9 6.5q-4 14 -12.5 22.5t-18.5 6.5q-6 -1 -10 -5t-7 -11q-8 5 -17 10t-18 11
q-1 6 -3 31t9 41l2 2l2 2v1v2l1 49v5v3q2 0 3.5 -1t2.5 -2q1 0 1 -0.5t1 -0.5q18 -10 34 -19l16 -9l3 -2t6 -6h-0.5h-0.5l8 -26.5t17 -28.5q7 -2 32 7t44 20q4 2 7.5 4.5t5.5 4.5v0v0q3 3 5 4.5t4 3.5l1.5 1.5l0.5 0.5q1 1 2 1.5t2 1.5v0v0l3 3l2 2q3 -3 5 -6.5t4 -6.5
q1 -2 2 -3.5t2 -2.5l-5 -2l-3 -1l-0.5 -0.5l-0.5 -0.5q-3 -2 -10.5 -7.5t-5.5 -11.5q1 -1 1.5 -2t1.5 -2h1.5h1.5q2 0 5 1t6 3h0.5h0.5l3 2q1 0 1.5 0.5t1.5 0.5v0l8 5q4 -8 5.5 -16.5t2.5 -15.5q-2 -2 -4.5 -5t-5.5 -7v0zM179 328q-3 16 -12 26t-20 9q-6 -1 -10 -5.5
t-7 -10.5l-2 2l-1 1q-6 9 -6 20t12 32q1 2 3.5 4.5t4.5 5.5q1 -2 1.5 -4.5t1.5 -3.5q9 -13 29 -17t33 -4q-5 -5 -14.5 -23t-5.5 -50q-1 1 -3 2t-3 2v7t-1 7v0zM248 461q5 1 9 1h8q12 0 19 -2t13 -5q1 0 2.5 -1t2.5 -1q-7 -1 -14 -1.5t-13 -0.5q-17 -3 -43.5 -18t-29.5 -41
l49 9v0.5t1 1.5q4 0 9 -1t10 -3q4 -1 12 -5t18 -10h-1v-4v-4l-1 -48v-4q-1 0 -2 -1.5t-1 -2.5q-11 -15 -10 -39t2 -33q-24 15 -50 30.5t-49 30.5q-6 34 5.5 52.5t13.5 21.5l85 -51v48h1q-11 6 -19.5 10t-12.5 4q-11 0 -35 -4l-24 -4l1 -1q-12 1 -31 4.5t-27 15.5l-2 4t-1 5
q18 16 49.5 30.5t55.5 16.5v0zM510 303h-0.5h-0.5q-1 -1 -1.5 -1t-0.5 -1l-1 1v0v13q0 1 0.5 1.5t0.5 1.5h0.5h0.5v0l4 2l4 2q1 -2 1.5 -3.5t1.5 -2.5q0 -1 1 -2.5t1 -3.5l-11 -7v0zM505 302v-0.5v-0.5q-3 -2 -6 -3t-5 0q-1 0 -1.5 1t-0.5 2q-1 4 3.5 8t9.5 7v0v-1v-13z
M367 446q11 -5 24 -12t26 -15q2 -1 4.5 -2.5t5.5 -3.5q6 -4 11.5 -7.5t10.5 -7.5q3 -2 5 -3.5t3 -2.5q-3 -2 -7.5 -4t-9.5 -5l-1.5 -1.5t-1.5 -0.5q-2 -1 -3.5 -2t-3.5 -2v0h-1q-1 -1 -3 -2t-4 -3l-10 -6l-10 -6q-1 0 -2 -0.5t-2 -1.5q-9 -5 -16.5 -9t-10.5 -5
q-3 4 -6.5 6.5l-3.5 2.5q-2 1 -39.5 22t-49.5 26q-5 2 -9.5 3t-8.5 1q8 7 28.5 22t49.5 25h8t9 -1h2t2 -1q1 0 3 -0.5t4 -1.5q2 0 3.5 -1t3.5 -1v0zM381 629l146 86q3 1 6.5 2t7.5 1t7.5 -1t5.5 -2l333 -189q2 -1 4 -3l4 -4l-172 -103l-351 204q2 3 4.5 5.5t4.5 3.5v0z
M871 355v0h1q2 0 3.5 -4t1.5 -9q-1 -4 -3.5 -7.5t-5.5 -2.5q-2 0 -3 1t-1 3q-1 2 -1.5 4t0.5 5q0 4 2.5 7t5.5 3zM859 345v-5.5t1 -5.5q1 -2 3 -3.5t4 -2.5h1v0q5 0 8 4t4 10t-1 11t-7 5q-1 1 -2 0.5l-1 -0.5l32 19v-15q-1 3 -3 5.5t-5 2.5q-4 1 -8 -3t-5 -10q0 -4 0.5 -7.5
t2.5 -5.5q1 -2 2.5 -3t2.5 -1h1h1q3 0 6.5 3.5t4.5 8.5v-8l-174 -102v34l138 80q-2 -2 -3.5 -4.5t-2.5 -6.5v0zM898 354q-1 -5 -3.5 -8t-5.5 -3q-1 1 -2 1.5t-1 1.5q-2 2 -2.5 4.5t0.5 5.5q1 5 3 8t5 3h0.5h0.5q3 -1 4.5 -4.5t0.5 -8.5v0zM901 504l-120 -72l54 -63l66 38
v-22l-175 -101v22l75 43l-57 62l-18 -11v11l172 103q1 -2 2 -5t1 -5zM637 460l40 -24v-14l-31 19v-78l31 -17v-105l-40 23v196v0zM155 293q-8 -1 -14.5 6.5t-8.5 18.5q-1 4 -1 7t1 6q0 2 0.5 3.5t0.5 2.5q1 2 1.5 3.5t1.5 2.5q2 3 4.5 4.5t5.5 2.5q7 1 14 -6.5t9 -19.5v-1
v-2v-3.5v-3.5t-0.5 -3.5t-0.5 -3.5q-2 -5 -5 -9t-8 -5zM351 173q-8 -1 -14.5 6t-8.5 19q-1 4 -1 7t1 6q0 2 0.5 3.5t0.5 2.5l1.5 3l1.5 3q2 2 4.5 4t5.5 3q7 1 14 -6.5t9 -19.5v0v0v-3.5v-3.5v-1.5v-0.5l-1 -4l-3 -11q-2 -3 -4.5 -5t-5.5 -2v0zM604 244q-8 -1 -14.5 6
t-7.5 19q-1 2 -1 5v6q1 2 1.5 3.5t0.5 3.5q1 2 2 3.5t2 2.5q1 3 3.5 4t4.5 2q7 1 13.5 -5.5t8.5 -17.5v-0.5v-1.5q0 -2 0.5 -3.5t0.5 -3.5q-1 -2 -1 -4v-4q-2 -6 -5.5 -10t-7.5 -5v0zM545 495l-38 22v-72l38 -22v72zM458 546l-39 23v-72l39 -23v72zM589 469l-38 23v-72
l38 -23v72zM502 520l-39 23v-72l39 -22v71zM761 265h0.5h0.5q4 0 7.5 4t4.5 9q1 7 -1.5 11.5t-6.5 5.5q-5 1 -8.5 -3t-4.5 -10q-1 -7 1 -11.5t7 -5.5v0zM756 281q1 5 3.5 8t4.5 3h0.5h0.5q3 -1 4.5 -4.5t0.5 -8.5t-3.5 -8t-5.5 -2q-3 0 -4.5 4t-0.5 8v0zM740 253v0h1
q4 0 7 4t4 10q1 3 0.5 5.5t-1.5 5.5q-1 2 -2.5 3.5t-4.5 1.5q-4 1 -7.5 -3t-4.5 -10q-2 -6 0.5 -11t7.5 -6zM735 270q1 4 3 7t5 3h0.5h0.5q1 0 2 -1t2 -3t1 -4v-5q-1 -4 -3.5 -7t-4.5 -3h-0.5h-0.5q-3 0 -4.5 4t-0.5 9zM381 511h-1h-1l-0.5 -0.5l-0.5 -0.5v-44l0.5 -0.5
l0.5 -0.5l239 -147h0.5h0.5h0.5h0.5q0 1 0.5 1t0.5 1v44q0 1 -0.5 1.5l-0.5 0.5l-239 145v0zM617 323l-235 144v40l235 -144v-40v0zM310 370v-49l56 -33l-3.5 24t-10.5 29q-3 3 -15.5 11.5t-26.5 17.5v0zM453 236l35 20v40l-35 -20v-40zM460 272l20 11v-23l-20 -11v23z
M415 279v0v0l-1 -1l-3 -1l-16 -7q-2 0 -2.5 -1.5t-0.5 -2.5l-2 -14v-0.5v-1.5h1.5h0.5h0.5h0.5l20 8q7 2 13.5 6t7.5 9q1 1 0.5 2.5t-1.5 2.5q-3 4 -8.5 3t-9.5 -2v0zM392 251v0v0v0.5v0.5l1 14q0 1 1 1.5l1 0.5l15 7v0h0.5t1.5 1h2q0 1 0.5 1h0.5h0.5h0.5v0v0v0v0l-2 -15
q0 -1 -0.5 -1.5l-1.5 -1.5l-20 -8v0zM433 273q-1 -3 -6 -6.5t-12 -5.5q1 0 1 0.5v0.5l2 14q0 1 -0.5 1t-0.5 1q4 1 8 1.5t7 -2.5q0 -1 0.5 -2t0.5 -2v0zM279 324l-17 13l-0.5 -9.5t17.5 -3.5zM825 363l-57 62l-11 -7l54 -63z" />
  </g>

</svg>
