<?xml version="1.0" standalone="no"?>
<!DOCTYPE svg PUBLIC "-//W3C//DTD SVG 1.1//EN" "http://www.w3.org/Graphics/SVG/1.1/DTD/svg11.dtd" >
<svg xmlns="http://www.w3.org/2000/svg" xmlns:xlink="http://www.w3.org/1999/xlink" version="1.1" viewBox="0 0 1024 1024">
  <g transform="matrix(1 0 0 -1 0 960)">
   <path fill="#ffffff"
d="M735 582l-284 163q-2 1 -5.5 1t-6.5 -1l-150 -88q-3 -2 -5 -4.5t-2 -6.5v-316q0 -4 2 -6.5t5 -4.5l283 -168q2 -1 3.5 -1h3.5q1 0 3 0.5t3 0.5l151 93q2 2 4 4.5t2 5.5v317q0 4 -2 6.5t-5 4.5zM717 261l-135 -83v296h0.5h0.5l134 83v-296v0zM712 567l-132 -82l-268 157
l133 78zM577 474h0.5h0.5v-297l-271 160v296l270 -159v0zM353 389q-2 1 -5 3t-5 4q15 -18 32 -33.5t36 -26.5q62 -36 95 -13.5t33 67.5v2.5v3.5q6 1 12 3.5t10 6.5q-6 1 -12.5 3t-13.5 5q7 0 12.5 3.5t7.5 9.5q-6 0 -13.5 1.5t-14.5 4.5q-7 10 -15 18.5t-18 14.5
q-19 10 -32 4.5t-13 -23.5q0 -3 0.5 -5.5t0.5 -5.5q-28 17 -52 43.5t-40 56.5q-3 -3 -4.5 -8t-1.5 -11q0 -12 5.5 -24.5t14.5 -24.5q-6 4 -11 8t-10 10v-1v0q0 -16 10.5 -34.5t25.5 -30.5l-5 2.5t-6 3.5q-3 1 -5 2.5t-4 2.5q4 -16 15.5 -31t26.5 -24q-11 -2 -25.5 1
t-30.5 12v0z" />
  </g>

</svg>
