<?xml version="1.0" standalone="no"?>
<!DOCTYPE svg PUBLIC "-//W3C//DTD SVG 1.1//EN" "http://www.w3.org/Graphics/SVG/1.1/DTD/svg11.dtd" >
<svg xmlns="http://www.w3.org/2000/svg" xmlns:xlink="http://www.w3.org/1999/xlink" version="1.1" viewBox="0 0 1024 1024">
  <g transform="matrix(1 0 0 -1 0 960)">
   <path fill="#ffffff"
d="M735 582l-283 163q-3 1 -6.5 1t-6.5 -1l-150 -88q-3 -2 -4.5 -4.5t-1.5 -5.5v-318q0 -3 1.5 -5.5t4.5 -4.5l283 -168q3 -1 6.5 -1t6.5 1l150 92q3 2 4.5 4.5t1.5 5.5v318q0 3 -1.5 6.5t-4.5 4.5zM578 177l-271 159v297l271 -158h1l-1 -298v0zM312 643l133 77l267 -152
l-132 -82l-268 157v0zM582 179v295h1l134 84v-296l-135 -83v0zM558 389q-1 8 -3.5 16.5t-6.5 15.5q-5 9 -11.5 16t-15.5 12q-27 18 -46 29.5l-19 11.5v0l-32.5 19t-59.5 33q-7 4 -13.5 5.5t-13.5 -0.5q-6 -2 -8 -10.5l-2 -8.5q-2 -10 -2.5 -20.5t-0.5 -20.5v-20
q0 -16 1.5 -30l1.5 -14q0 -8 3 -16.5t7 -15.5q5 -9 12.5 -16.5t16.5 -12.5q15 -11 52 -33l37 -22l19 -11t46 -25q6 -4 13 -5.5t14 0.5q6 2 8 10.5l2 8.5q2 10 2.5 20.5t0.5 20.5v20q1 15 -0.5 29zM411 375v95l91 -102z" />
  </g>

</svg>
